<svg width="14" height="14" viewBox="0 0 14 14" fill="none" xmlns="http://www.w3.org/2000/svg">
<path fill-rule="evenodd" clip-rule="evenodd" d="M0 6.47498C0.132624 4.71432 0.925623 3.0688 2.22013 1.86807C3.51463 0.667347 5.21504 9.66221e-05 6.98068 0C6.39854 0 5.88024 0.25453 5.45518 0.644306C5.03096 1.0324 4.67311 1.57422 4.3833 2.21433C4.0918 2.85779 3.86499 3.6113 3.71211 4.42866C3.58741 5.10432 3.513 5.78831 3.4895 6.47498H0ZM0 7.52502H3.4895C3.5147 8.22645 3.58946 8.91696 3.71211 9.57218C3.86499 10.3895 4.0918 11.1422 4.3833 11.7865C4.67311 12.4258 5.03096 12.9676 5.45518 13.3557C5.88108 13.7455 6.39854 14 6.98068 14C5.21504 13.9999 3.51463 13.3327 2.22013 12.1319C0.925623 10.9312 0.132624 9.28568 0 7.52502Z" fill="#916CE7"/>
<path d="M6.97969 0.976959C6.78648 0.976959 6.53783 1.05844 6.24886 1.32305C5.95737 1.58934 5.66588 2.00768 5.40883 2.57722C5.15262 3.14257 4.94429 3.82467 4.80148 4.58826C4.68653 5.21127 4.61746 5.84186 4.59483 6.47498H9.36454C9.34164 5.84184 9.2723 5.21124 9.15706 4.58826C9.01425 3.82467 8.80676 3.14257 8.55055 2.57722C8.29266 2.00768 8.00117 1.58934 7.71052 1.32305C7.42071 1.05844 7.17206 0.976959 6.97969 0.976959ZM4.80148 9.41258C4.94429 10.1753 5.15262 10.8574 5.40799 11.4236C5.66588 11.9923 5.95737 12.4107 6.24886 12.6769C6.53783 12.9416 6.78648 13.0239 6.97969 13.0239C7.17206 13.0239 7.42071 12.9416 7.71052 12.6769C8.00117 12.4107 8.29266 11.9923 8.55055 11.4236C8.80676 10.8574 9.01425 10.1753 9.15706 9.41258C9.27234 8.78932 9.34169 8.15844 9.36454 7.52502H4.59399C4.61836 8.17437 4.68892 8.81111 4.80148 9.41258Z" fill="#916CE7"/>
<path d="M6.97949 0C7.5608 0 8.0791 0.25453 8.50499 0.644306C8.92837 1.0324 9.28622 1.57422 9.57688 2.21433C9.86753 2.85779 10.0943 3.6113 10.2472 4.42866C10.3707 5.08388 10.4455 5.77439 10.4698 6.47498H13.9602C13.8275 4.71432 13.0345 3.0688 11.74 1.86807C10.4455 0.667347 8.74513 9.66221e-05 6.97949 0ZM10.2472 9.57218C10.0943 10.3895 9.86753 11.1422 9.57688 11.7865C9.28706 12.4258 8.92837 12.9676 8.50499 13.3557C8.0791 13.7455 7.5608 14 6.97949 14C8.74513 13.9999 10.4455 13.3327 11.74 12.1319C13.0345 10.9312 13.8275 9.28568 13.9602 7.52502H10.4698C10.4466 8.21199 10.3722 8.89627 10.2472 9.57218Z" fill="#916CE7"/>
</svg>
