<svg width="86" height="17" viewBox="0 0 86 17" fill="none" xmlns="http://www.w3.org/2000/svg">
<path d="M5.418 16.297H2.196V8.264H0V5.648H2.196V3.788C2.196 1.582 3.166 0 6.38 0C7.06 0 8.127 0.137 8.127 0.137V2.566H7.007C5.864 2.566 5.418 2.913 5.418 3.873V5.648H8.085L7.847 8.264H5.418V16.297ZM12.812 5.439L12.669 5.442C9.681 5.442 8.314 7.689 8.314 10.88C8.314 14.9 10.088 16.508 12.693 16.508C14.183 16.508 15.163 15.881 15.758 14.71V16.298H18.823V5.649H15.758V7.287C15.272 6.233 14.266 5.451 12.813 5.439H12.812ZM13.592 7.956C14.847 7.956 15.6 8.831 15.6 10.32L15.603 11.84C15.603 12.845 14.981 14.019 13.592 14.019C11.456 14.019 11.513 11.713 11.513 10.945C11.513 8.361 12.651 7.956 13.592 7.956ZM20.061 10.974C20.061 9.68 19.999 5.446 25.515 5.446C27.73 5.446 28.655 6.15 28.655 6.15L27.911 8.455C27.911 8.455 26.987 7.947 25.784 7.947C24.243 7.947 23.26 8.84 23.26 10.412L23.261 11.539C23.261 13.05 24.211 14.059 25.787 14.059C26.883 14.059 27.894 13.545 27.894 13.545L28.635 15.802C28.635 15.802 27.79 16.511 25.53 16.511C20.278 16.511 20.061 12.711 20.061 10.974ZM46.626 5.442C49.615 5.442 51.003 7.69 51.003 10.881C51.003 14.901 49.23 16.509 46.625 16.509C45.135 16.509 44.032 15.881 43.437 14.71V16.298L40.411 16.297V0.323L43.624 0.0430002V7.143C44.088 5.901 45.612 5.443 46.627 5.443L46.626 5.442ZM45.726 7.956C44.471 7.956 43.624 8.831 43.624 10.32L43.621 11.84C43.619 12.845 44.207 14.019 45.726 14.019C47.861 14.019 47.804 11.713 47.804 10.945C47.804 8.361 46.666 7.956 45.726 7.956ZM34.23 5.451C30.84 5.451 29.051 7.299 29.051 10.582V11.192C29.051 15.455 31.564 16.552 34.56 16.552C37.555 16.552 38.79 15.738 38.79 15.738L38.188 13.568C38.188 13.568 36.638 14.228 34.945 14.228C33.253 14.228 32.435 13.781 32.242 12.095H39.047V10.355C39.047 6.793 37.039 5.451 34.23 5.451ZM34.312 7.622C35.485 7.622 36.245 8.342 36.204 10.01H32.248C32.317 8.254 33.137 7.622 34.312 7.622ZM57.411 5.436C53.931 5.436 52.098 7.397 52.098 10.912C52.098 15.735 55.256 16.512 57.417 16.512C60.579 16.512 62.683 14.809 62.683 10.956C62.683 7.103 60.317 5.436 57.411 5.436ZM57.367 7.964C58.897 7.964 59.504 9.109 59.504 10.414V11.534C59.504 13.114 58.656 14.027 57.361 14.027C56.151 14.027 55.301 13.173 55.301 11.534V10.414C55.301 8.666 56.312 7.964 57.367 7.964ZM69.085 5.436C65.605 5.436 63.772 7.397 63.772 10.912C63.772 15.735 66.93 16.512 69.091 16.512C72.253 16.512 74.357 14.809 74.357 10.956C74.357 7.103 71.991 5.436 69.085 5.436ZM69.041 7.964C70.571 7.964 71.178 9.109 71.178 10.414V11.534C71.178 13.114 70.329 14.027 69.035 14.027C67.825 14.027 66.974 13.173 66.974 11.534V10.414C66.974 8.666 67.986 7.964 69.041 7.964ZM75.571 16.297V0.323L78.794 0.0430002V10.751L81.991 5.649H85.395L82.059 10.933L85.523 16.298H82.11L78.794 11.088V16.298L75.571 16.297Z" fill="#999999"/>
</svg>
