<svg width="15" height="17" viewBox="0 0 15 17" fill="none" xmlns="http://www.w3.org/2000/svg">
<path fill-rule="evenodd" clip-rule="evenodd" d="M15 8.25111V3.69111C15 1.80011 15 0.854106 14.41 0.337106C13.821 -0.179894 12.92 -0.0248941 11.119 0.287106L10.24 0.438106C8.873 0.674106 8.19 0.792106 7.5 0.792106C6.81 0.792106 6.127 0.674106 4.76 0.438106L3.881 0.286106C2.08 -0.0238941 1.179 -0.179894 0.589 0.336106C0 0.855106 0 1.80111 0 3.69211V8.25211C0 12.9921 3.532 15.2931 5.749 16.2701C6.35 16.5351 6.651 16.6671 7.5 16.6671C8.35 16.6671 8.65 16.5351 9.251 16.2701C11.467 15.2931 15 12.9911 15 8.25111ZM3.476 5.95011C3.579 5.73611 3.964 5.44411 4.583 5.44411C5.203 5.44411 5.588 5.73611 5.691 5.95011C5.845 6.27011 6.221 6.40011 6.529 6.24011C6.6791 6.15943 6.79211 6.02375 6.84432 5.86153C6.89653 5.69932 6.88387 5.52319 6.809 5.37011C6.427 4.57811 5.503 4.15011 4.583 4.15011C3.663 4.15011 2.74 4.57811 2.358 5.37011C2.28313 5.52319 2.27047 5.69932 2.32268 5.86153C2.37489 6.02375 2.4879 6.15943 2.638 6.24011C2.946 6.40011 3.321 6.27011 3.476 5.95011ZM10.416 5.44411C9.797 5.44411 9.412 5.73611 9.309 5.95011C9.27429 6.02529 9.22476 6.09269 9.16337 6.14827C9.10198 6.20385 9.03 6.24645 8.95175 6.27353C8.87349 6.30061 8.79057 6.31161 8.70796 6.30587C8.62535 6.30012 8.54475 6.27776 8.471 6.24011C8.3209 6.15943 8.20789 6.02375 8.15568 5.86153C8.10347 5.69932 8.11613 5.52319 8.191 5.37011C8.573 4.57811 9.497 4.15011 10.417 4.15011C11.337 4.15011 12.26 4.57811 12.642 5.37011C12.797 5.69011 12.672 6.08011 12.362 6.24011C12.2882 6.27776 12.2076 6.30012 12.125 6.30587C12.0424 6.31161 11.9595 6.30061 11.8813 6.27353C11.803 6.24645 11.731 6.20385 11.6696 6.14827C11.6082 6.09269 11.5587 6.02529 11.524 5.95011C11.421 5.73611 11.035 5.44411 10.416 5.44411ZM4.157 10.4511C4.03599 10.3301 3.96587 10.1674 3.96103 9.99628C3.9562 9.8252 4.01701 9.65876 4.131 9.53111C4.18787 9.47084 4.25618 9.4225 4.33193 9.38891C4.40769 9.35532 4.48938 9.33716 4.57223 9.33549C4.65508 9.33381 4.73743 9.34866 4.81448 9.37915C4.89153 9.40965 4.96174 9.45518 5.021 9.51311C5.036 9.52611 5.076 9.55711 5.105 9.57811C5.189 9.63811 5.329 9.72611 5.528 9.81711C5.923 9.99711 6.567 10.1941 7.5 10.1941C8.433 10.1941 9.077 9.99711 9.473 9.81611C9.671 9.72611 9.811 9.63811 9.895 9.57811C9.92852 9.55468 9.96089 9.52965 9.992 9.50311V9.50211C10.0508 9.44512 10.1205 9.40056 10.1969 9.37108C10.2733 9.3416 10.3548 9.3278 10.4367 9.33051C10.5185 9.33322 10.599 9.35237 10.6732 9.38683C10.7475 9.4213 10.8141 9.47036 10.869 9.53111C10.9838 9.65726 11.0457 9.82276 11.0418 9.99331C11.0379 10.1639 10.9685 10.3264 10.848 10.4471L10.845 10.4491L10.843 10.4511L10.837 10.4571L10.82 10.4731L10.77 10.5161C10.73 10.5511 10.673 10.5961 10.602 10.6461C10.4048 10.7844 10.1948 10.9036 9.975 11.0021C9.423 11.2541 8.609 11.4891 7.5 11.4891C6.391 11.4891 5.577 11.2541 5.025 11.0021C4.80523 10.9039 4.59528 10.785 4.398 10.6471C4.31416 10.5873 4.23401 10.5226 4.158 10.4531L4.157 10.4511Z" fill="#916CE7"/>
</svg>
