<svg width="10" height="14" viewBox="0 0 10 14" fill="none" xmlns="http://www.w3.org/2000/svg">
<path d="M0.488363 0C0.757939 0 0.976726 0.218787 0.976726 0.488363V1.69325L2.09723 1.469C3.1721 1.254 4.2863 1.35635 5.30401 1.76358L5.43685 1.81671C6.45315 2.22297 7.57156 2.29897 8.63348 2.03393C8.74869 2.00507 8.86897 2.00286 8.98517 2.02745C9.10137 2.05205 9.21043 2.10281 9.30407 2.17588C9.3977 2.24896 9.47345 2.34241 9.52555 2.44915C9.57765 2.55589 9.60473 2.6731 9.60473 2.79187V7.58877C9.60469 7.79273 9.53644 7.99081 9.41085 8.15151C9.28526 8.31221 9.10955 8.4263 8.91165 8.47564L8.77256 8.5108C7.62007 8.79881 6.40611 8.71624 5.30323 8.27482C4.28575 7.86775 3.17185 7.7654 2.09723 7.98024L0.976726 8.2045V13.5116C0.976726 13.6412 0.925274 13.7654 0.833688 13.857C0.742102 13.9485 0.617885 14 0.488363 14C0.358841 14 0.234624 13.9485 0.143038 13.857C0.0514524 13.7654 0 13.6412 0 13.5116V0.488363C0 0.218787 0.218787 0 0.488363 0Z" fill="#916CE7"/>
</svg>
