<svg width="74" height="18" viewBox="0 0 74 18" fill="none" xmlns="http://www.w3.org/2000/svg">
<path d="M22.5131 7.24223C22.9181 7.24223 23.3066 7.08131 23.5931 6.79487C23.8795 6.50844 24.0404 6.11994 24.0404 5.71486C24.0404 5.30978 23.8795 4.92129 23.5931 4.63485C23.3066 4.34841 22.9181 4.18749 22.5131 4.18749C22.108 4.18749 21.7195 4.34841 21.4331 4.63485C21.1466 4.92129 20.9857 5.30978 20.9857 5.71486C20.9857 6.11994 21.1466 6.50844 21.4331 6.79487C21.7195 7.08131 22.108 7.24223 22.5131 7.24223ZM72.9061 12.4606C72.6732 12.2977 72.4943 12.2707 72.3449 12.5872C69.7805 18.1422 65.4591 15.3702 65.8886 15.6141C66.8472 15.1753 69.3687 13.1534 68.9872 10.3619C68.756 8.65568 67.2911 7.8979 65.7367 8.16962C63.0238 8.64218 62.0255 11.5695 62.5335 14.161C62.6221 14.6057 62.7807 14.9727 62.9402 15.3314C59.8737 17.8258 58.656 13.0994 58.5184 12.5349C58.5125 12.5045 60.8854 10.5265 61.5453 5.81359C62.2373 0.873696 60.6618 -0.0258477 59.0501 0.00199936C56.0679 0.054318 55.262 6.28446 56.3447 11.4767C56.2535 11.5003 55.8316 11.734 55.1549 11.7602C54.6663 10.2244 52.5811 8.8793 52.036 9.39742C50.6706 10.6953 52.3676 13.231 53.5608 13.4302C52.8436 17.8469 48.3593 16.7524 49.1939 11.2193C50.6538 8.50716 51.7651 4.4744 51.5668 2.0399C51.4968 1.17833 50.8597 0.0230951 49.4184 0.0804769C46.6463 0.190177 46.3451 6.42201 46.6699 10.8455C46.6539 10.7358 46.4995 11.3822 45.3645 11.7037C45.0953 10.2126 42.6937 8.71559 42.1283 9.43539C41.0702 10.7822 42.9047 13.1838 43.7739 13.3509C43.0566 17.7684 38.5715 16.6748 39.4061 11.1408C40.866 8.42868 41.9773 4.39592 41.779 1.96226C41.709 1.09985 41.0718 -0.0545386 39.6306 0.00199936C36.8585 0.1117 36.5573 6.34353 36.8821 10.767C36.8653 10.6573 36.7083 11.3239 35.5261 11.6404C35.4864 9.70543 33.0764 8.8177 32.4967 9.43539C31.4655 10.5358 32.7329 12.7939 33.9059 13.3517C33.1894 17.7684 28.7052 16.6748 29.5398 11.1408C30.9997 8.42953 32.111 4.39677 31.9127 1.96226C31.8427 1.09985 31.2056 -0.054539 29.7643 0.00284275C26.9922 0.112543 26.7686 6.65744 27.0943 11.0809C26.1813 14.9921 23.1198 19.8772 23.5164 10.0919C23.5561 9.40502 23.5991 9.14427 23.2565 8.88774C23 8.68774 22.4169 8.78394 22.0987 8.79154C21.7106 8.80757 21.6144 9.03372 21.5283 9.37717C21.3283 10.2615 21.2929 11.1189 21.2642 12.2893C21.2456 12.8378 21.2017 13.0926 20.9908 13.8394C20.7798 14.5854 19.579 15.9491 18.9216 15.7212C18.0086 15.4073 18.3082 12.8319 18.4795 11.0623C18.6221 9.66408 18.1656 9.03541 16.9968 8.80673C16.3133 8.66411 15.8973 8.68606 15.1842 8.46159C14.51 8.24979 14.3573 6.97473 12.9202 7.39919C12.1346 7.63209 12.64 9.29785 12.451 10.5324C11.5219 16.6056 9.58867 16.7727 8.69165 13.8226C12.7303 3.93012 9.86038 0.0306898 8.18028 0.0306898C6.49933 0.0306898 4.42937 1.23655 5.27659 8.94934C4.86479 8.82867 4.73822 8.76369 4.28676 8.76369C1.73749 8.76369 0 10.8261 0 13.3686C0 15.9111 1.73749 17.9726 4.28676 17.9726C5.79218 17.9726 6.84953 17.2891 7.65034 16.2292C8.17184 16.9777 8.8081 17.9844 9.97093 17.9389C13.4375 17.8039 14.4459 10.6936 14.5648 10.297C14.9361 10.3543 15.2863 10.4624 15.6281 10.5197C16.1985 10.6041 16.2399 10.8303 16.2272 11.4041C16.0753 16.2402 16.9681 17.9338 18.9925 17.9338C20.1208 17.9338 21.1258 16.8258 21.8177 16.0326C22.335 17.1009 23.1595 17.9009 24.2649 17.933C26.945 18.0005 27.9702 13.7297 27.8766 14.2917C27.8032 14.7322 28.7457 17.9093 31.5051 17.9203C34.921 17.9355 35.5556 14.1778 35.6316 13.5492C35.6417 13.4226 35.6459 13.4361 35.6316 13.5492L35.629 13.5863C36.7142 13.3846 37.2737 12.8032 37.2737 12.8032C37.2737 12.8032 38.1445 17.9794 41.3706 17.9211C44.7207 17.8604 45.3535 14.4639 45.4362 13.8015C45.4472 13.6445 45.4531 13.6631 45.4362 13.8015L45.4346 13.8209C46.7231 13.3525 47.0623 12.8817 47.0623 12.8817C47.0623 12.8817 47.7543 17.9549 51.1592 17.9996C54.1937 18.0393 55.3177 14.9314 55.3245 13.631C55.8367 13.6369 56.7826 13.3272 56.7607 13.3104C56.7607 13.3104 57.872 17.7456 60.9757 17.9735C62.4331 18.0806 63.5267 17.1532 64.1494 16.7305C65.6144 17.9161 70.4901 19.4308 73.5693 14.2107C74.0039 13.4614 73.0706 12.5762 72.9061 12.4606ZM4.1644 16.2512C2.67669 16.2512 1.7223 14.8757 1.7223 13.3922C1.7223 11.9087 2.59821 10.5332 4.08508 10.5332C4.75509 10.5332 5.12807 10.6067 5.64957 11.0606C5.74408 11.4328 6.01243 12.2927 6.14238 12.6825C6.31706 13.2049 6.52465 13.6496 6.73392 14.134C6.4352 15.3744 5.45296 16.2512 4.1644 16.2512ZM7.78958 11.1037C7.72797 11.005 7.74063 11.0657 7.67144 10.9729C7.39887 10.2303 6.87316 8.57467 6.8124 6.69457C6.7432 4.56638 7.09762 2.07281 8.14399 2.07281C8.85198 2.07281 9.6047 7.12746 7.78958 11.1037ZM28.7381 8.88689C28.5702 7.62449 28.5609 1.99602 29.9128 2.15044C30.6587 2.45254 29.4402 7.76373 28.7381 8.88689ZM38.6044 8.88689C38.4374 7.62449 38.4281 1.99602 39.7791 2.15044C40.525 2.45254 39.3065 7.76373 38.6044 8.88689ZM48.3931 8.96537C48.2243 7.70213 48.2159 2.07365 49.5677 2.22892C50.3137 2.53102 49.0952 7.84221 48.3931 8.96537ZM59.1994 1.82134C60.4348 1.69307 60.3833 7.0878 57.9041 10.4936C57.5835 9.26325 57.094 2.24411 59.1994 1.82134ZM64.3916 13.4302C63.995 11.4252 65.0203 10.1088 66.0768 9.96449C66.4464 9.90542 66.9814 10.1451 67.0886 10.5923C67.2641 11.4362 67.0633 12.6867 64.698 14.2732C64.7013 14.2867 64.4802 13.8774 64.3916 13.4302Z" fill="#999999"/>
</svg>
