<svg width="11" height="14" viewBox="0 0 11 14" fill="none" xmlns="http://www.w3.org/2000/svg">
<path d="M5.09989 0C3.74779 0.00169379 2.45153 0.581687 1.49546 1.61275C0.539383 2.64381 0.0015706 4.04174 0 5.49988C0 10.2062 4.63626 13.7605 4.83358 13.9093C4.91159 13.9683 5.00458 14 5.09989 14C5.19519 14 5.28818 13.9683 5.36619 13.9093C5.56351 13.7605 10.1998 10.2054 10.1998 5.49988C10.1982 4.04174 9.66039 2.64381 8.70432 1.61275C7.74824 0.581687 6.45198 0.00169379 5.09989 0ZM5.09989 3.49992C5.59173 3.49992 6.06343 3.71063 6.41122 4.0857C6.75901 4.46076 6.95439 4.96946 6.95439 5.49988C6.95439 6.0303 6.75901 6.53899 6.41122 6.91406C6.06343 7.28912 5.59173 7.49983 5.09989 7.49983C4.60804 7.49983 4.13634 7.28912 3.78855 6.91406C3.44077 6.53899 3.24538 6.0303 3.24538 5.49988C3.24538 4.96946 3.44077 4.46076 3.78855 4.0857C4.13634 3.71063 4.60804 3.49992 5.09989 3.49992Z" fill="#916CE7"/>
</svg>
