<svg width="93" height="23" viewBox="0 0 93 23" fill="none" xmlns="http://www.w3.org/2000/svg">
<mask id="mask0_2092_272" style="mask-type:luminance" maskUnits="userSpaceOnUse" x="25" y="2" width="68" height="21">
<path d="M25 2.5H92.5V22.404H25V2.5Z" fill="white"/>
</mask>
<g mask="url(#mask0_2092_272)">
<path d="M28.4739 2.56899C27.0929 3.16999 25.5739 4.86799 25.0939 6.99899C24.4869 9.70099 27.0139 10.843 27.2219 10.469C27.4659 10.029 26.7689 9.87899 26.6249 8.47899C26.4399 6.66899 27.2499 4.64599 28.2679 3.75899C28.4579 3.59399 28.4479 3.82299 28.4479 4.24799C28.4479 5.00699 28.4079 11.82 28.4079 13.242C28.4079 15.166 28.3319 15.774 28.1949 16.374C28.0549 16.983 27.8319 17.394 28.0009 17.552C28.1909 17.729 28.9989 17.308 29.4669 16.629C30.0279 15.815 30.2249 14.836 30.2599 13.774C30.3029 12.494 30.2999 10.462 30.3029 9.30399C30.3039 8.23999 30.3199 5.12799 30.2849 3.25699C30.2759 2.79799 29.0519 2.31699 28.4749 2.56799L28.4739 2.56899ZM92.1969 12.677C91.9969 12.677 91.9049 12.892 91.8289 13.253C91.5669 14.51 91.2909 14.793 90.9349 14.793C90.5379 14.793 90.1809 14.172 90.0889 12.926C90.0169 11.946 90.0289 10.143 90.1209 8.34899C90.1399 7.98099 90.0409 7.61599 89.0909 7.25699C88.6809 7.10199 88.0859 6.87499 87.7899 7.61799C86.9529 9.71799 86.6259 11.385 86.5489 12.062C86.5449 12.097 86.5039 12.104 86.4959 12.022C86.4459 11.48 86.3369 10.494 86.3239 8.42399C86.3209 8.01999 86.2379 7.67599 85.8099 7.39399C85.5309 7.21199 84.6859 6.88799 84.3809 7.27299C84.1179 7.58699 83.8119 8.43299 83.4949 9.43599C83.3506 9.89188 83.2046 10.3472 83.0569 10.802C83.0569 10.802 83.0609 8.60299 83.0639 7.76899C83.0649 7.45399 82.8579 7.34899 82.7939 7.33099C82.5139 7.24599 81.9579 7.10299 81.7219 7.10299C81.4319 7.10299 81.3599 7.27299 81.3599 7.51899C81.3599 7.55099 81.3139 10.414 81.3139 12.416V12.699C81.1539 13.619 80.6319 14.869 80.0639 14.869C79.4969 14.869 79.2289 14.346 79.2289 11.959C79.2289 10.567 79.2689 9.96199 79.2889 8.95399C79.2999 8.37399 79.3219 7.92899 79.3209 7.82799C79.3169 7.51799 78.8009 7.36199 78.5609 7.30399C78.3607 7.25101 78.1539 7.2271 77.9469 7.23299C77.7149 7.24599 77.5519 7.40399 77.5519 7.62099V7.95899C77.2549 7.47199 76.7749 7.13299 76.4559 7.03499C75.5959 6.76899 74.6989 7.00499 74.0229 7.98899C73.4849 8.76999 73.1609 9.65599 73.0329 10.929C72.9399 11.859 72.9699 12.802 73.1359 13.599C72.9359 14.499 72.5639 14.869 72.1559 14.869C71.5659 14.869 71.1359 13.866 71.1859 12.131C71.2199 10.991 71.4389 10.19 71.6789 9.03099C71.7819 8.53799 71.6989 8.27899 71.4899 8.03099C71.2989 7.80399 70.8909 7.68799 70.3049 7.83099C69.8869 7.93299 69.2899 8.04299 68.7449 8.12599C68.7449 8.12599 68.7779 7.98999 68.8049 7.74899C68.9469 6.48599 67.6249 6.58799 67.2049 6.99099C66.9529 7.23199 66.7819 7.51599 66.7169 8.02699C66.6846 8.25574 66.7173 8.48896 66.8114 8.69995C66.9055 8.91094 67.0571 9.09116 67.2489 9.21999C67.0409 10.214 66.5289 11.51 66.0009 12.449C65.7179 12.951 65.5009 13.323 65.2219 13.719C65.2127 12.1306 65.2227 10.5421 65.2519 8.95399C65.2639 8.37399 65.2869 7.94099 65.2849 7.83999C65.2819 7.61299 65.1549 7.52799 64.8899 7.41999C64.6346 7.31773 64.3651 7.25501 64.0909 7.23399C63.7289 7.20399 63.5099 7.40399 63.5159 7.64099V7.95999C63.2189 7.47299 62.7389 7.13299 62.4199 7.03499C61.5599 6.76999 60.6629 7.00499 59.9869 7.98899C59.4489 8.77099 59.0969 9.86899 58.9969 10.919C58.9039 11.899 58.9209 12.731 59.0469 13.433C58.9109 14.135 58.5179 14.869 58.0739 14.869C57.5059 14.869 57.1819 14.347 57.1819 11.96C57.1819 10.568 57.2219 9.96199 57.2419 8.95499C57.2539 8.37499 57.2759 7.92899 57.2749 7.82799C57.2699 7.51799 56.7549 7.36199 56.5149 7.30399C56.3079 7.24896 56.0939 7.22536 55.8799 7.23399C55.6599 7.25199 55.5059 7.45599 55.5059 7.60799V7.95999C55.2079 7.47299 54.7279 7.13299 54.4089 7.03499C53.5489 6.76999 52.6569 7.00899 51.9759 7.98899C51.5319 8.62899 51.1719 9.33699 50.9859 10.905C50.9329 11.359 50.9089 11.783 50.9129 12.18C50.7349 13.306 49.9529 14.605 49.3119 14.605C48.9369 14.605 48.5799 13.849 48.5799 12.24C48.5799 10.095 48.7079 7.04199 48.7299 6.74699L49.6959 6.73099C50.0989 6.72599 50.4649 6.73599 51.0019 6.70799C51.2719 6.69299 51.5319 5.68799 51.2529 5.56299C51.1269 5.50699 50.2359 5.45699 49.8829 5.44999C49.5859 5.44299 48.7579 5.37899 48.7579 5.37899C48.7579 5.37899 48.8329 3.35199 48.8499 3.13899C48.8639 2.95899 48.6419 2.86799 48.5149 2.81199C48.2049 2.67599 47.9279 2.61099 47.5999 2.53999C47.1459 2.44299 46.9399 2.53799 46.8999 2.93599C46.8399 3.53999 46.8079 5.30999 46.8079 5.30999C46.4749 5.30999 45.3379 5.24199 45.0039 5.24199C44.6939 5.24199 44.3609 6.62599 44.7889 6.64299C45.2809 6.66299 46.1389 6.67999 46.7079 6.69799C46.7079 6.69799 46.6819 9.80199 46.6819 10.76C46.6819 10.862 46.6819 10.96 46.6839 11.055C46.3709 12.751 45.2679 13.667 45.2679 13.667C45.5049 12.545 45.0209 11.702 44.1499 10.989C43.8279 10.727 43.1949 10.229 42.4859 9.68399C42.4859 9.68399 42.8959 9.26399 43.2609 8.41699C43.5189 7.81699 43.5299 7.13099 42.8959 6.97999C41.8499 6.72999 40.9869 7.52899 40.7299 8.38199C40.5299 9.04199 40.6369 9.53199 41.0279 10.042C41.0559 10.079 41.0869 10.117 41.1179 10.155C40.8505 10.6953 40.5721 11.2301 40.2829 11.759C39.5199 13.131 38.9439 14.216 38.5079 14.216C38.1599 14.216 38.1649 13.115 38.1649 12.083C38.1649 11.194 38.2279 9.85799 38.2789 8.47299C38.2959 8.01599 38.0749 7.75499 37.7059 7.51899C37.4819 7.37499 37.0029 7.09299 36.7259 7.09299C36.3109 7.09299 35.1139 7.15199 33.9829 10.553C33.8399 10.981 33.5599 11.763 33.5599 11.763L33.5839 7.67299C33.5839 7.57699 33.5339 7.48299 33.4219 7.41999C33.2319 7.31299 32.7219 7.09299 32.2699 7.09299C32.0539 7.09299 31.9459 7.19699 31.9459 7.40499L31.9069 13.804C31.9069 14.29 31.9189 14.857 31.9659 15.105C32.0119 15.354 32.0859 15.555 32.1789 15.675C32.2674 15.8031 32.4016 15.8926 32.5539 15.925C32.7179 15.96 33.6149 16.08 33.6619 15.724C33.7179 15.296 33.7199 14.834 34.1909 13.111C34.9239 10.429 35.8809 9.12099 36.3309 8.65499C36.4089 8.57499 36.4989 8.56899 36.4939 8.70199C36.4749 9.28999 36.4079 10.76 36.3619 12.008C36.2399 15.349 36.8249 15.968 37.6609 15.968C38.3009 15.968 39.2009 15.308 40.1669 13.637C40.7054 12.7051 41.2414 11.7718 41.7749 10.837C42.0679 11.12 42.3959 11.423 42.7249 11.747C43.4869 12.5 43.7379 13.215 43.5719 13.894C43.4439 14.412 42.9659 14.947 42.1129 14.427C41.8649 14.276 41.7589 14.159 41.5089 13.987C41.3749 13.896 41.1699 13.868 41.0469 13.965C40.7279 14.215 40.5459 14.533 40.4419 14.926C40.3399 15.31 40.7099 15.512 41.0919 15.689C41.4219 15.841 42.1299 15.979 42.5819 15.995C44.3409 16.056 45.7509 15.112 46.7319 12.676C46.9079 14.78 47.6549 15.97 48.9539 15.97C49.8219 15.97 50.6939 14.804 51.0739 13.656C51.1839 14.124 51.3449 14.531 51.5539 14.874C52.5539 16.523 54.4959 16.168 55.4719 14.768C55.7729 14.336 55.8189 14.18 55.8189 14.18C55.9609 15.502 56.9849 15.964 57.5719 15.964C58.2279 15.964 58.9059 15.641 59.3819 14.529C59.4359 14.648 59.4969 14.763 59.5639 14.874C60.5649 16.523 62.5069 16.168 63.4819 14.768C63.5279 14.703 63.5679 14.643 63.6019 14.59L63.6319 15.458L62.7339 16.314C61.2289 17.747 60.0849 18.835 60.0009 20.102C59.8939 21.716 61.1529 22.316 62.1069 22.395C63.1189 22.478 63.9869 21.897 64.5189 21.084C64.9879 20.368 65.2949 18.827 65.2719 17.304C65.2629 16.695 65.2479 15.92 65.2369 15.09C65.8585 14.3412 66.4174 13.5425 66.9079 12.702C67.5059 11.674 68.1459 10.293 68.4739 9.21899C68.4739 9.21899 69.0299 9.22399 69.6239 9.18299C69.8139 9.16999 69.8669 9.20999 69.8329 9.35499C69.7899 9.52999 69.0829 12.367 69.7279 14.256C70.1699 15.55 71.1669 15.966 71.7579 15.966C72.4479 15.966 73.1099 15.423 73.4649 14.616C73.5069 14.706 73.5519 14.794 73.6009 14.874C74.6009 16.522 76.5369 16.166 77.5189 14.768C77.7399 14.452 77.8659 14.18 77.8659 14.18C78.0759 15.547 79.0999 15.97 79.6859 15.97C80.2729 15.97 80.8759 15.71 81.3459 14.554C81.3659 15.063 81.3969 15.479 81.4459 15.61C81.4759 15.69 81.6489 15.791 81.7759 15.84C82.3339 16.055 82.9039 15.953 83.1149 15.91C83.2609 15.879 83.3749 15.757 83.3899 15.442C83.4299 14.617 83.4059 13.23 83.6469 12.199C84.0509 10.469 84.4269 9.79899 84.6069 9.46599C84.7069 9.27999 84.8199 9.24899 84.8239 9.44599C84.8319 9.84499 84.8509 11.015 85.0079 12.588C85.1229 13.744 85.2759 14.428 85.3939 14.644C85.7309 15.263 86.1469 15.292 86.4859 15.292C86.7019 15.292 87.1519 15.23 87.1119 14.836C87.0919 14.645 87.1269 13.459 87.5249 11.755C87.7849 10.641 88.2189 9.63599 88.3749 9.26799C88.4339 9.13299 88.4599 9.23999 88.4599 9.25999C88.4269 10.027 88.3529 12.534 88.6529 13.905C89.0599 15.763 90.2379 15.97 90.6489 15.97C91.5249 15.97 92.2419 15.278 92.4829 13.454C92.5419 13.014 92.4559 12.676 92.1979 12.676L92.1969 12.677ZM55.4869 11.55C55.4369 12.515 55.2569 13.321 54.9659 13.907C54.4399 14.967 53.3989 15.304 52.9409 13.771C52.6099 12.667 52.7229 11.161 52.8609 10.346C53.0649 9.13899 53.5759 8.28199 54.3739 8.36399C55.1939 8.44699 55.5909 9.54199 55.4869 11.55ZM63.4969 11.564C63.4509 12.475 63.2239 13.39 62.9759 13.907C62.4639 14.975 61.3939 15.309 60.9509 13.772C60.6479 12.722 60.7209 11.362 60.8709 10.506C61.0649 9.39499 61.5369 8.36399 62.3839 8.36399C63.2079 8.36399 63.6129 9.30399 63.4969 11.564ZM63.7069 17.78C63.6959 19.442 63.4439 20.9 62.9039 21.323C62.1389 21.923 61.1099 21.473 61.3239 20.26C61.5119 19.187 62.4039 18.09 63.7089 16.751C63.7089 16.751 63.7119 17.056 63.7069 17.78ZM77.5349 11.574C77.4899 12.574 77.2769 13.356 77.0119 13.907C76.5009 14.975 75.4379 15.307 74.9879 13.772C74.7419 12.935 74.7309 11.538 74.9079 10.371C75.0869 9.18099 75.5889 8.28299 76.4209 8.36399C77.2409 8.44399 77.6249 9.54299 77.5339 11.574H77.5349Z" fill="#999999"/>
</g>
<path d="M6.727 10.089C6.71923 9.64255 6.80045 9.19903 6.96592 8.7843C7.13138 8.36958 7.37777 7.99195 7.69073 7.67346C8.00368 7.35497 8.37692 7.10199 8.78868 6.92928C9.20044 6.75656 9.64248 6.66758 10.089 6.66751C10.5355 6.66745 10.9776 6.7563 11.3894 6.92889C11.8012 7.10148 12.1745 7.35435 12.4876 7.67275C12.8006 7.99114 13.0471 8.3687 13.2127 8.78337C13.3783 9.19805 13.4596 9.64155 13.452 10.088C13.4368 10.9697 13.0758 11.8102 12.4469 12.4284C11.818 13.0466 10.9714 13.393 10.0895 13.393C9.20762 13.393 8.36103 13.0466 7.73209 12.4284C7.10315 11.8102 6.74221 10.9697 6.727 10.088V10.089ZM4.908 10.089C4.908 11.4628 5.45375 12.7804 6.42519 13.7518C7.39663 14.7233 8.71418 15.269 10.088 15.269C11.4618 15.269 12.7794 14.7233 13.7508 13.7518C14.7223 12.7804 15.268 11.4628 15.268 10.089C15.268 8.71518 14.7223 7.39762 13.7508 6.42619C12.7794 5.45475 11.4618 4.909 10.088 4.909C8.71418 4.909 7.39663 5.45475 6.42519 6.42619C5.45375 7.39762 4.908 8.71518 4.908 10.089ZM14.264 4.703C14.264 5.02418 14.3916 5.3322 14.6187 5.55931C14.8458 5.78641 15.1538 5.914 15.475 5.914C15.7962 5.914 16.1042 5.78641 16.3313 5.55931C16.5584 5.3322 16.686 5.02418 16.686 4.703C16.686 4.38182 16.5584 4.0738 16.3313 3.84669C16.1042 3.61959 15.7962 3.492 15.475 3.492C15.1538 3.492 14.8458 3.61959 14.6187 3.84669C14.3916 4.0738 14.264 4.38182 14.264 4.703ZM6.013 18.3C5.029 18.256 4.494 18.092 4.139 17.953C3.70104 17.7911 3.30473 17.5335 2.979 17.199C2.6434 16.874 2.38534 16.4775 2.224 16.039C2.085 15.684 1.922 15.149 1.877 14.166C1.829 13.103 1.819 12.783 1.819 10.089C1.819 7.395 1.829 7.077 1.877 6.013C1.922 5.029 2.087 4.496 2.224 4.139C2.408 3.668 2.626 3.332 2.979 2.979C3.30396 2.64329 3.70047 2.38522 4.139 2.224C4.494 2.085 5.029 1.922 6.013 1.878C7.076 1.829 7.395 1.819 10.088 1.819C12.782 1.819 13.101 1.829 14.165 1.878C15.149 1.922 15.682 2.087 16.039 2.224C16.51 2.407 16.845 2.626 17.199 2.979C17.552 3.332 17.77 3.668 17.953 4.139C18.093 4.494 18.255 5.029 18.3 6.013C18.349 7.077 18.359 7.395 18.359 10.089C18.359 12.783 18.349 13.102 18.3 14.166C18.255 15.149 18.09 15.684 17.953 16.04C17.7914 16.4781 17.5338 16.8745 17.199 17.2C16.846 17.552 16.51 17.77 16.039 17.953C15.684 18.093 15.149 18.256 14.165 18.3C13.102 18.349 12.782 18.359 10.089 18.359C7.395 18.359 7.076 18.349 6.013 18.3ZM5.929 0.0620003C4.855 0.11 4.121 0.281 3.48 0.53C2.807 0.783398 2.19722 1.18025 1.693 1.693C1.1797 2.19676 0.782764 2.80668 0.53 3.48C0.28 4.122 0.11 4.855 0.0610001 5.93C0.0110001 7.005 0 7.349 0 10.089C0 12.829 0.0110001 13.172 0.0610001 14.248C0.11 15.322 0.281 16.056 0.53 16.697C0.782967 17.3702 1.17988 17.9801 1.693 18.484C2.253 19.044 2.816 19.389 3.48 19.647C4.122 19.897 4.855 20.067 5.93 20.116C7.006 20.164 7.349 20.177 10.089 20.177C12.828 20.177 13.172 20.166 14.248 20.116C15.322 20.067 16.055 19.896 16.697 19.647C17.3698 19.3933 17.9796 18.9965 18.484 18.484C19.044 17.924 19.389 17.36 19.647 16.697C19.897 16.056 20.067 15.322 20.115 14.248C20.164 13.171 20.175 12.828 20.175 10.088C20.175 7.349 20.164 7.005 20.115 5.929C20.067 4.855 19.896 4.122 19.647 3.48C19.3933 2.80716 18.9965 2.19744 18.484 1.693C17.98 1.17995 17.3702 0.783053 16.697 0.53C16.055 0.28 15.322 0.11 14.249 0.0620003C13.173 0.0130003 12.829 0 10.089 0C7.349 0 7.006 0.0120003 5.929 0.0620003Z" fill="#999999"/>
</svg>
