<svg width="113" height="96" viewBox="0 0 113 96" fill="none" xmlns="http://www.w3.org/2000/svg">
<path d="M53.6465 90.3536L5.64648 90.3536L5.64648 49.2764C5.64648 30.9064 15.105 17.8093 34.0222 9.98511C37.7349 8.45428 41.978 7.0085 46.7515 5.64776L53.5139 19.4252C42.641 23.0822 36.0553 27.8023 33.757 33.5854C32.6962 36.1368 32.1658 39.1984 32.1658 42.7704L53.6465 42.7704L53.6465 90.3536Z" fill="#CBCBCB" fill-opacity="0.48"/>
<path d="M107.293 90.3536L59.293 90.3536L59.293 49.2764C59.293 30.9064 68.7515 17.8093 87.6687 9.98511C91.3814 8.45428 95.6245 7.0085 100.398 5.64776L107.16 19.4252C96.2874 23.0822 89.7018 27.8023 87.4035 33.5854C86.3427 36.1368 85.8123 39.1984 85.8123 42.7704L107.293 42.7704L107.293 90.3536Z" fill="#CBCBCB" fill-opacity="0.48"/>
</svg>
