<svg width="16" height="16" viewBox="0 0 16 16" fill="none" xmlns="http://www.w3.org/2000/svg">
<path fill-rule="evenodd" clip-rule="evenodd" d="M1.35188 7.98569C1.40565 8.0394 1.44831 8.10318 1.47741 8.17338C1.50651 8.24359 1.52149 8.31884 1.52149 8.39484C1.52149 8.47084 1.50651 8.54609 1.47741 8.6163C1.44831 8.6865 1.40565 8.75028 1.35188 8.80399L1.23302 8.92209C1.18463 8.97065 1.15746 9.0364 1.15746 9.10495C1.15746 9.1735 1.18463 9.23926 1.23302 9.28781C1.25711 9.31212 1.28577 9.33141 1.31735 9.34457C1.34893 9.35774 1.38281 9.36452 1.41703 9.36452C1.45124 9.36452 1.48512 9.35774 1.5167 9.34457C1.54828 9.33141 1.57694 9.31212 1.60103 9.28781L2.9062 7.98493C3.01649 7.88527 3.16088 7.83184 3.30947 7.83571C3.45807 7.83957 3.59949 7.90044 3.70445 8.00569C3.80941 8.11094 3.86987 8.25253 3.87332 8.40114C3.87677 8.54974 3.82294 8.69398 3.72298 8.80399L2.41857 10.1069C2.15284 10.3723 1.79261 10.5214 1.41703 10.5214C1.04144 10.5214 0.681207 10.3723 0.415481 10.1069C0.283776 9.97545 0.179285 9.81934 0.107991 9.64748C0.0366974 9.47562 0 9.29139 0 9.10533C0 8.91927 0.0366974 8.73504 0.107991 8.56318C0.179285 8.39132 0.283776 8.23521 0.415481 8.10379L0.53434 7.98569C0.642879 7.87751 0.789871 7.81677 0.943111 7.81677C1.09635 7.81677 1.24334 7.87751 1.35188 7.98569ZM5.0952 8.75447C5.20337 8.86301 5.26411 9.01 5.26411 9.16324C5.26411 9.31648 5.20337 9.46347 5.0952 9.57201L3.4624 11.2048C3.3522 11.3046 3.20786 11.3581 3.05927 11.3544C2.91067 11.3507 2.7692 11.2899 2.66414 11.1848C2.55908 11.0796 2.49849 10.9381 2.4949 10.7895C2.49131 10.6409 2.545 10.4966 2.64486 10.3865L4.27689 8.75447C4.38546 8.64606 4.53262 8.58517 4.68605 8.58517C4.83947 8.58517 4.98663 8.64606 5.0952 8.75447ZM7.23543 10.8917C7.34384 11.0002 7.40473 11.1474 7.40473 11.3008C7.40473 11.4542 7.34384 11.6014 7.23543 11.71L5.61407 13.3313C5.50387 13.4311 5.35953 13.4846 5.21093 13.4809C5.06234 13.4772 4.92086 13.4165 4.81581 13.3113C4.71075 13.2061 4.65015 13.0646 4.64656 12.916C4.64297 12.7674 4.69667 12.6231 4.79652 12.513L6.41713 10.8917C6.5257 10.7832 6.67285 10.7224 6.82628 10.7224C6.97971 10.7224 7.12686 10.7832 7.23543 10.8917ZM4.79805 11.1972C5.02129 11.4258 5.01748 11.7915 4.78891 12.0147L3.47078 13.3039C3.36033 13.4067 3.21404 13.4623 3.06316 13.4588C2.91227 13.4553 2.76875 13.3929 2.66323 13.285C2.55771 13.1771 2.49855 13.0322 2.4984 12.8813C2.49824 12.7303 2.55709 12.5853 2.66238 12.4772L3.98051 11.188C4.09015 11.0809 4.23787 11.0217 4.39117 11.0234C4.54448 11.0251 4.69082 11.0876 4.79805 11.1972ZM7.98592 12.2806C8.09433 12.3892 8.15522 12.5364 8.15522 12.6898C8.15522 12.8432 8.09433 12.9904 7.98592 13.0989L6.68075 14.4018C6.63237 14.4504 6.6052 14.5161 6.6052 14.5847C6.6052 14.6532 6.63237 14.719 6.68075 14.7675C6.78285 14.8689 6.94743 14.8689 7.04952 14.7675L7.16838 14.6494C7.27821 14.5483 7.4229 14.4936 7.57217 14.4967C7.72144 14.4998 7.86372 14.5605 7.96924 14.6661C8.07477 14.7717 8.13535 14.9141 8.13832 15.0633C8.14129 15.2126 8.0864 15.3573 7.98516 15.467L7.86706 15.5851C7.60131 15.8508 7.24091 16 6.86514 16C6.48936 16 6.12897 15.8508 5.86321 15.5851C5.73151 15.4537 5.62702 15.2976 5.55572 15.1257C5.48443 14.9538 5.44773 14.7696 5.44773 14.5835C5.44773 14.3975 5.48443 14.2132 5.55572 14.0414C5.62702 13.8695 5.73151 13.7134 5.86321 13.582L7.16838 12.2791C7.27692 12.1709 7.42401 12.1101 7.57731 12.1103C7.73061 12.1104 7.87759 12.1722 7.98592 12.2806Z" fill="#916CE7"/>
<path d="M7.50559 2.59816L5.84003 4.25915C5.53374 4.56468 5.25259 4.84506 5.03011 5.09802C4.88006 5.26557 4.74446 5.44551 4.62477 5.63594L4.60877 5.61917L4.54706 5.55822C4.25711 5.27707 3.91631 5.05366 3.54284 4.89992L3.46208 4.86716L3.21369 4.76887C3.13643 4.73827 3.06799 4.68894 3.01452 4.62532C2.96105 4.5617 2.92424 4.48579 2.90739 4.40441C2.89054 4.32303 2.89418 4.23874 2.91799 4.15912C2.9418 4.0795 2.98503 4.00705 3.04379 3.94828C3.77752 3.21608 4.65906 2.33758 5.08497 2.16082C5.45456 2.00575 5.8593 1.95387 6.25604 2.01072C6.61415 2.06405 6.9532 2.24768 7.50635 2.5974L7.50559 2.59816ZM10.3521 11.3473C10.4862 11.4844 10.5754 11.5797 10.6561 11.6825C10.7628 11.8189 10.858 11.9629 10.9403 12.1145C11.034 12.2845 11.1064 12.4666 11.2512 12.83C11.3693 13.1256 11.7617 13.2041 11.9895 12.977L12.0444 12.9222C12.7781 12.1907 13.6596 11.3115 13.8372 10.8871C13.9933 10.5138 14.0452 10.1092 13.9873 9.71907C13.9339 9.36249 13.7495 9.0242 13.399 8.47257L11.7266 10.1404C11.4135 10.4528 11.1262 10.7393 10.8657 10.9633C10.7052 11.105 10.5335 11.2335 10.3521 11.3473Z" fill="#916CE7"/>
<path fill-rule="evenodd" clip-rule="evenodd" d="M11.0524 9.42267L14.8848 5.6024C15.4365 5.0523 15.713 4.77724 15.8578 4.42676C16.0033 4.07704 16.0033 3.6877 16.0033 2.91054V2.5372C16.0033 1.34098 16.0033 0.742873 15.63 0.371055C15.2582 0 14.6585 0 13.4578 0H13.0852C12.305 0 11.9141 4.5414e-08 11.5636 0.144765C11.2131 0.28953 10.9366 0.564583 10.3849 1.11545L6.55247 4.93572C5.90788 5.57878 5.50787 5.97727 5.3532 6.3628C5.30444 6.48471 5.2793 6.60433 5.2793 6.73081C5.2793 7.25653 5.70369 7.6794 6.55247 8.52589L6.66675 8.63942L8.00316 7.2832C8.0947 7.19035 8.21938 7.13766 8.34976 7.13673C8.48015 7.1358 8.60556 7.18671 8.69842 7.27825C8.79127 7.36979 8.84396 7.49446 8.84488 7.62485C8.84581 7.75523 8.79491 7.88065 8.70337 7.9735L7.36239 9.33353L7.45306 9.42267C8.30184 10.2684 8.72546 10.692 9.25271 10.692C9.36929 10.692 9.48129 10.6715 9.59329 10.6303C9.98873 10.4848 10.3918 10.0817 11.0531 9.42267H11.0524ZM12.8528 4.93648C12.356 5.43173 11.5499 5.43173 11.0524 4.93648C10.9341 4.81882 10.8403 4.67895 10.7763 4.52493C10.7123 4.3709 10.6793 4.20574 10.6793 4.03894C10.6793 3.87214 10.7123 3.70698 10.7763 3.55295C10.8403 3.39893 10.9341 3.25906 11.0524 3.1414C11.5499 2.64615 12.3553 2.64615 12.8528 3.1414C13.3503 3.63665 13.3503 4.44047 12.8528 4.93648Z" fill="#916CE7"/>
</svg>
