<svg width="98" height="32" viewBox="0 0 98 32" fill="none" xmlns="http://www.w3.org/2000/svg">
<path d="M10.075 26.4265C8.83537 26.4265 7.66667 26.2052 6.56874 25.7624C5.48853 25.302 4.54999 24.6557 3.75312 23.8234C2.97395 22.9911 2.38958 22.0083 2 20.8749L5.37343 19.3609C5.86925 20.4411 6.55103 21.2911 7.41873 21.9109C8.30417 22.5307 9.27812 22.8406 10.3406 22.8406C10.9072 22.8406 11.3942 22.752 11.8015 22.5749C12.2088 22.3979 12.5276 22.1588 12.7578 21.8578C12.988 21.539 13.1031 21.1671 13.1031 20.7421C13.1031 20.2817 12.9614 19.8921 12.6781 19.5734C12.3947 19.2369 11.952 18.9713 11.35 18.7766L7.47185 17.5015C5.89582 16.988 4.70936 16.2619 3.91249 15.3234C3.11562 14.3671 2.71718 13.225 2.71718 11.8969C2.71718 10.7281 3.00052 9.70103 3.56718 8.81559C4.15155 7.93021 4.95728 7.23959 5.98436 6.74375C7.02915 6.24792 8.22443 6 9.57029 6C10.7567 6 11.8546 6.20365 12.864 6.61094C13.8734 7.01821 14.7411 7.59377 15.4671 8.33751C16.2109 9.08125 16.7687 9.97553 17.1406 11.0203L13.7937 12.5344C13.4218 11.6135 12.864 10.8964 12.1203 10.3828C11.3766 9.85156 10.5265 9.58596 9.57029 9.58596C9.02136 9.58596 8.53438 9.67447 8.10936 9.85156C7.68433 10.0286 7.35675 10.2854 7.12654 10.6219C6.89634 10.9406 6.78124 11.3125 6.78124 11.7375C6.78124 12.1979 6.93175 12.6052 7.23279 12.9593C7.5338 13.2958 7.98539 13.5614 8.5875 13.7562L12.3859 14.9781C13.9796 15.4916 15.1661 16.2088 15.9453 17.1296C16.7421 18.0505 17.1406 19.1749 17.1406 20.5031C17.1406 21.6541 16.8395 22.6812 16.2374 23.5843C15.6354 24.4697 14.8031 25.1692 13.7406 25.6827C12.6958 26.1786 11.4739 26.4265 10.075 26.4265Z" fill="#CBCBCB"/>
<path d="M20.0747 26.1078V6.31885H24.1919V26.1078H20.0747Z" fill="#CBCBCB"/>
<path d="M27.7009 26.1078V6.31885H31.8181V22.5219H49.1853V26.1078H27.7009Z" fill="#CBCBCB"/>
<path d="M54.55 13.5735C54.55 14.813 54.3287 16.9818 53.8859 18.0797C53.4255 19.1599 52.7792 20.0985 51.9469 20.8953C51.1146 21.6745 50.1318 22.2589 48.9985 22.6484L47.4844 19.275C48.5647 18.7792 49.4146 18.0974 50.0344 17.2297C50.6542 16.3443 50.9641 14.3704 50.9641 13.3078C50.9641 12.7412 50.8756 12.2542 50.6985 11.8469C50.5214 11.4396 50.2824 11.1209 49.9813 10.8907C49.6625 10.6605 49.2907 10.5454 48.8657 10.5454C48.4052 10.5454 48.0157 10.687 47.697 10.9704C47.3604 11.2537 47.0948 11.6964 46.9001 12.2985L45.6251 16.1766C45.1115 17.7526 44.3855 18.9391 43.447 19.736C42.4907 20.5329 41.3485 20.9313 40.0204 20.9313C38.8516 20.9313 37.8246 20.6479 36.9391 20.0813C36.0537 19.4969 35.3631 18.6912 34.8673 17.6641C34.3715 16.6193 34.1235 15.424 34.1235 14.0782C34.1235 12.8917 34.3272 11.7938 34.7345 10.7844C35.1417 9.77503 35.7173 8.90732 36.461 8.1813C37.2048 7.43756 38.0991 6.87973 39.1439 6.50789L40.6579 9.85477C39.7371 10.2266 39.0199 10.7844 38.5064 11.5282C37.9751 12.2719 37.7095 13.1219 37.7095 14.0782C37.7095 14.6271 37.798 15.1141 37.9751 15.5391C38.1522 15.9641 38.4089 16.2917 38.7454 16.5219C39.0641 16.7521 39.436 16.8672 39.861 16.8672C40.3215 16.8672 40.7287 16.7167 41.0829 16.4157C41.4193 16.1146 41.685 15.663 41.8797 15.061L43.1016 11.2626C43.6152 9.66879 44.3323 8.48236 45.2532 7.70316C46.174 6.9063 47.2985 6.50789 48.6266 6.50789C49.7777 6.50789 50.8047 6.80895 51.7078 7.411C52.5933 8.01311 53.2927 8.84537 53.8063 9.90789C54.3021 10.9526 54.55 12.1745 54.55 13.5735Z" fill="#CBCBCB"/>
<path d="M56.4253 26.1078V6.31885H60.5425V26.1078H56.4253Z" fill="#CBCBCB"/>
<path d="M63.1235 26.2968V6.50781H67.2407V22.7109H75.608V26.2968H63.1235Z" fill="#CBCBCB"/>
<path d="M77.1172 26.1078L83.8109 6.31885H89.2823L95.9761 26.1078H91.4871L90.1591 22.0703H82.9073L81.5793 26.1078H77.1172ZM84.0497 18.4844H89.0167L85.9889 9.13447H87.1044L84.0497 18.4844Z" fill="#CBCBCB"/>
</svg>
