<svg width="14" height="14" viewBox="0 0 14 14" fill="none" xmlns="http://www.w3.org/2000/svg">
<path fill-rule="evenodd" clip-rule="evenodd" d="M7 14C8.85651 14 10.637 13.2625 11.9497 11.9497C13.2625 10.637 14 8.85651 14 7C14 5.14348 13.2625 3.36301 11.9497 2.05025C10.637 0.737498 8.85651 0 7 0C5.14348 0 3.36301 0.737498 2.05025 2.05025C0.737498 3.36301 0 5.14348 0 7C0 8.85651 0.737498 10.637 2.05025 11.9497C3.36301 13.2625 5.14348 14 7 14ZM4.47738 9.48734C4.51844 9.43186 4.57003 9.38502 4.6292 9.3495C4.68838 9.31398 4.75398 9.29047 4.82225 9.28033C4.89052 9.27019 4.96012 9.27361 5.02707 9.29039C5.09401 9.30717 5.157 9.33699 5.21241 9.37814C5.72147 9.75615 6.33805 9.97456 6.99916 9.97456C7.66195 9.97456 8.27685 9.75615 8.78675 9.37814C8.8987 9.29526 9.03899 9.26025 9.17676 9.28081C9.31453 9.30136 9.43848 9.37581 9.52136 9.48776C9.60424 9.59971 9.63925 9.74 9.61869 9.87777C9.59813 10.0155 9.52369 10.1395 9.41174 10.2224C8.73131 10.7264 7.89968 11.0254 6.99916 11.0254C6.12936 11.0244 5.28315 10.7424 4.58658 10.2215C4.47478 10.1386 4.40047 10.0147 4.37999 9.87704C4.35951 9.73937 4.39454 9.5992 4.47738 9.48734ZM9.79983 5.94996C9.79983 6.52958 9.4865 7 9.09924 7C8.71283 7 8.3995 6.52958 8.3995 5.94996C8.3995 5.37034 8.71283 4.89992 9.09924 4.89992C9.48566 4.89992 9.79983 5.37034 9.79983 5.94996ZM4.89908 7C5.28549 7 5.59966 6.52958 5.59966 5.94996C5.59966 5.37034 5.28633 4.89992 4.89908 4.89992C4.51266 4.89992 4.19933 5.37034 4.19933 5.94996C4.19933 6.52958 4.51266 7 4.89908 7Z" fill="#916CE7"/>
</svg>
