<svg width="98" height="19" viewBox="0 0 98 19" fill="none" xmlns="http://www.w3.org/2000/svg">
<path d="M9.93401 18.959C11.808 18.959 13.209 17.575 13.209 17.575C13.332 17.473 13.472 17.373 13.472 17.373C14.594 16.634 16.412 17.167 16.412 17.167C17.072 17.324 17.092 16.823 17.092 16.823L17.142 16.256C17.192 15.7 18.043 15.706 18.043 15.706C19.165 15.662 19.638 15.201 19.833 14.876C20.041 14.564 19.647 14.476 19.647 14.476C16.939 13.717 15.625 11.139 15.625 11.139C15.014 10.062 15.852 9.627 15.852 9.627C16.079 9.467 17.189 9.1 17.189 9.1C18.105 8.732 17.8 8.091 17.8 8.091C17.46 7.404 16.667 7.862 16.667 7.862C16.293 8.062 16.011 8.046 16.011 8.046C15.384 8.057 15.309 7.923 15.309 7.923L15.33 4.94C15.33 2.212 12.931 0 9.97301 0H9.92101C6.96201 0 4.56401 2.212 4.56401 4.94L4.58401 7.923C4.58401 7.923 4.51001 8.057 3.88401 8.046C3.88401 8.046 3.60101 8.062 3.22701 7.863C3.22701 7.863 2.43401 7.403 2.09401 8.092C2.09401 8.092 1.78901 8.732 2.70501 9.1C2.70501 9.1 3.81501 9.467 4.04201 9.627C4.04201 9.627 4.88001 10.063 4.26901 11.139C4.26901 11.139 2.95501 13.717 0.247013 14.476C0.247013 14.476 -0.147987 14.564 0.0610133 14.876C0.256013 15.201 0.729013 15.662 1.85101 15.706C1.85101 15.706 2.70201 15.7 2.75101 16.256L2.80101 16.823C2.80101 16.823 2.82101 17.324 3.48101 17.167C3.48101 17.167 5.30001 16.634 6.42101 17.373C6.42101 17.373 6.56101 17.472 6.68501 17.575C6.68501 17.575 8.08701 18.959 9.96001 18.959H9.93501H9.93401ZM25.709 11.216C26.442 11.585 28.096 12.146 29.259 12.146C30.512 12.146 31.174 11.636 31.174 10.864C31.174 10.091 30.601 9.704 29.152 9.195C27.148 8.511 25.842 7.421 25.842 5.701C25.842 3.681 27.56 2.136 30.405 2.136C31.764 2.136 32.766 2.416 33.482 2.733L33.504 5.1C33.021 4.872 31.532 4.33 30.351 4.33C29.171 4.33 28.598 4.858 28.598 5.472C28.598 6.227 29.278 6.561 30.834 7.141C32.964 7.914 33.966 9.002 33.966 10.671C33.966 12.655 32.409 14.358 29.099 14.358C27.721 14.358 26.361 13.989 25.682 13.621L25.709 11.216ZM57.37 5.714V7.046C57.875 6.108 58.604 5.564 60.175 5.564C62.049 5.564 63.523 7.017 63.523 9.757C63.523 12.883 61.658 14.357 59.75 14.357C58.717 14.357 57.911 13.937 57.526 13.375L57.333 13.123V17.963H54.83V5.733L57.37 5.714ZM57.322 10.539C57.322 10.759 57.341 10.959 57.377 11.122C57.559 11.87 58.195 12.435 58.995 12.435C60.195 12.435 60.905 11.432 60.905 9.919C60.905 8.497 60.269 7.421 59.032 7.421C58.25 7.421 57.559 8.005 57.378 8.825C57.3405 8.98663 57.3221 9.15209 57.323 9.318V10.539H57.322ZM71.654 13.968C71.181 14.178 70.288 14.372 69.273 14.372C66.507 14.372 64.738 12.733 64.738 10.029C64.738 7.518 66.454 5.569 69.641 5.569C70.341 5.569 71.111 5.691 71.671 5.902L71.658 7.947C71.153 7.647 70.464 7.517 69.763 7.517C68.18 7.517 67.32 8.519 67.338 9.924C67.338 11.504 68.217 12.33 69.816 12.33C70.446 12.33 71.237 12.025 71.639 11.849L71.654 13.968ZM78.379 5.565C80.5 5.565 81.396 6.555 81.373 9.143V14.165H78.771V9.441C78.771 8.317 78.327 7.544 77.328 7.544C76.628 7.544 76.125 8.001 75.933 8.474C75.863 8.65 75.845 8.879 75.845 9.072V14.165H73.35V1.697H75.868V6.977C76.679 5.479 78.379 5.565 78.379 5.565ZM95.591 3.242V5.752H97.499V7.686H95.59V10.841C95.59 11.963 95.777 12.351 96.64 12.351C97.008 12.351 97.166 12.334 97.428 12.281L97.446 14.113C97.096 14.253 96.466 14.358 95.712 14.358C94.855 14.358 94.216 14.042 93.796 13.604C93.306 13.094 93.061 12.269 93.061 11.057V7.687H91.766V5.753H93.061V3.963L95.591 3.242ZM40.672 5.385C39.42 5.385 38.582 6.001 38.146 6.52V5.545H35.51V7.739C35.506 7.927 35.504 8.119 35.504 8.318V14.166H35.51V14.174L35.514 14.166H38.224V9.214C38.224 8.968 38.26 8.722 38.331 8.546C38.51 8.055 38.957 7.546 39.709 7.546C40.693 7.546 41.086 8.3 41.086 9.406V14.166H43.806V9.073C43.806 6.544 42.738 5.385 40.674 5.385H40.672ZM52.715 14.175V9.09C52.715 7.07 51.818 5.385 48.965 5.385C47.565 5.385 46.479 5.725 45.841 6.035V8.079C46.421 7.732 47.637 7.302 48.491 7.302C49.804 7.302 50.085 8.2 50.085 8.656V8.779C47.055 8.761 45.025 9.494 45.025 11.724C45.025 13.094 46.057 14.358 47.791 14.358C48.806 14.358 49.681 13.989 50.241 13.305H50.294L50.275 14.165H52.257L52.715 14.175ZM50.054 11.139C50.054 11.296 50.036 11.453 50 11.592C49.82 12.132 49.261 12.568 48.577 12.568C47.965 12.568 47.497 12.238 47.497 11.558C47.497 10.529 48.613 10.198 50.054 10.216V11.139ZM90.474 14.174V9.09C90.474 7.07 89.577 5.385 86.724 5.385C85.324 5.385 84.238 5.725 83.6 6.035V8.079C84.18 7.732 85.396 7.302 86.25 7.302C87.563 7.302 87.844 8.2 87.844 8.656V8.779C84.814 8.761 82.784 9.494 82.784 11.724C82.784 13.094 83.817 14.358 85.55 14.358C86.565 14.358 87.44 13.989 88 13.305H88.053L88.034 14.165H90.016L90.473 14.175L90.474 14.174ZM87.813 11.139C87.813 11.296 87.795 11.453 87.759 11.592C87.579 12.132 87.02 12.568 86.336 12.568C85.724 12.568 85.256 12.238 85.256 11.558C85.256 10.529 86.372 10.198 87.813 10.216V11.139Z" fill="#999999"/>
</svg>
