<svg width="93" height="29" viewBox="0 0 93 29" fill="none" xmlns="http://www.w3.org/2000/svg">
<path d="M14.39 0C6.444 0 0 6.443 0 14.39C0 22.338 6.443 28.782 14.39 28.782C22.338 28.782 28.782 22.339 28.782 14.391C28.782 6.442 22.339 0 14.39 0ZM20.99 20.755C20.9287 20.8556 20.8482 20.9431 20.753 21.0126C20.6578 21.0821 20.5499 21.1322 20.4354 21.1599C20.3209 21.1877 20.2021 21.1926 20.0857 21.1744C19.9693 21.1563 19.8576 21.1153 19.757 21.054C16.377 18.988 12.124 18.522 7.115 19.666C6.99881 19.6963 6.87772 19.703 6.75891 19.6856C6.6401 19.6683 6.52598 19.6272 6.42332 19.5649C6.32067 19.5026 6.23156 19.4204 6.16128 19.323C6.09101 19.2257 6.04099 19.1152 6.01421 18.9981C5.98742 18.8811 5.98441 18.7598 6.00535 18.6416C6.02629 18.5234 6.07076 18.4105 6.13611 18.3098C6.20147 18.2091 6.28638 18.1225 6.38582 18.0552C6.48526 17.9879 6.5972 17.9412 6.715 17.918C12.197 16.665 16.9 17.204 20.693 19.522C21.115 19.782 21.249 20.333 20.99 20.756V20.755ZM22.752 16.837C22.5963 17.0907 22.3461 17.2723 22.0566 17.3416C21.7671 17.411 21.4618 17.3626 21.208 17.207C17.341 14.83 11.444 14.141 6.868 15.53C6.58316 15.6163 6.27571 15.586 6.0132 15.4457C5.7507 15.3055 5.5546 15.0667 5.468 14.782C5.38201 14.4973 5.41248 14.1901 5.55271 13.9278C5.69294 13.6656 5.93148 13.4696 6.216 13.383C11.443 11.797 17.94 12.566 22.382 15.295C22.91 15.62 23.076 16.31 22.752 16.837ZM22.902 12.757C18.264 10.002 10.612 9.749 6.184 11.093C6.01415 11.1468 5.83531 11.1664 5.65784 11.1505C5.48037 11.1347 5.30781 11.0838 5.15017 11.0008C4.99253 10.9177 4.85294 10.8042 4.7395 10.6668C4.62606 10.5295 4.54103 10.3709 4.48934 10.2004C4.43764 10.0299 4.42031 9.85082 4.43836 9.67356C4.4564 9.49631 4.50946 9.3244 4.59445 9.1678C4.67944 9.01121 4.79467 8.87305 4.93347 8.76133C5.07227 8.64961 5.23186 8.56656 5.403 8.517C10.486 6.974 18.937 7.272 24.276 10.442C24.5759 10.6275 24.791 10.9233 24.8751 11.2658C24.9592 11.6082 24.9055 11.97 24.7257 12.2733C24.5458 12.5766 24.254 12.7972 23.9132 12.8877C23.5723 12.9781 23.2086 12.9312 22.902 12.757ZM39.152 13.285C36.668 12.693 36.225 12.277 36.225 11.403C36.225 10.577 37.003 10.022 38.159 10.022C39.314 10.022 40.39 10.444 41.555 11.312C41.59 11.338 41.635 11.349 41.678 11.342C41.6994 11.3388 41.7199 11.3313 41.7383 11.32C41.7566 11.3086 41.7725 11.2937 41.785 11.276L42.998 9.566C43.0223 9.53217 43.0328 9.49032 43.0272 9.44903C43.0216 9.40774 43.0004 9.37016 42.968 9.344C41.581 8.232 40.02 7.691 38.195 7.691C35.512 7.691 33.639 9.301 33.639 11.605C33.639 14.075 35.255 14.95 38.049 15.625C40.426 16.172 40.827 16.631 40.827 17.451C40.827 18.361 40.016 18.925 38.71 18.925C37.26 18.925 36.077 18.437 34.753 17.291C34.7367 17.2768 34.7177 17.2661 34.6972 17.2594C34.6767 17.2526 34.655 17.2501 34.6335 17.2519C34.612 17.2536 34.591 17.2597 34.5719 17.2697C34.5527 17.2797 34.5358 17.2934 34.522 17.31L33.162 18.928C33.1343 18.9602 33.1205 19.002 33.1235 19.0443C33.1265 19.0866 33.1461 19.126 33.178 19.154C34.718 20.529 36.612 21.254 38.655 21.254C41.546 21.254 43.415 19.674 43.415 17.23C43.419 15.166 42.184 14.023 39.157 13.287L39.152 13.285ZM49.955 10.835C48.702 10.835 47.674 11.328 46.826 12.34V11.2C46.826 11.1569 46.809 11.1156 46.7786 11.0851C46.7483 11.0546 46.7071 11.0373 46.664 11.037H44.439C44.3958 11.037 44.3543 11.0542 44.3237 11.0847C44.2932 11.1153 44.276 11.1568 44.276 11.2V23.85C44.276 23.94 44.349 24.013 44.439 24.013H46.664C46.754 24.013 46.826 23.94 46.826 23.85V19.858C47.674 20.809 48.702 21.274 49.955 21.274C52.283 21.274 54.64 19.482 54.64 16.055C54.644 12.628 52.286 10.835 49.957 10.835H49.955ZM52.053 16.055C52.053 17.799 50.978 19.017 49.439 19.017C47.9 19.017 46.77 17.744 46.77 16.054C46.77 14.364 47.918 13.092 49.44 13.092C50.953 13.092 52.053 14.338 52.053 16.055ZM60.681 10.835C57.683 10.835 55.334 13.144 55.334 16.092C55.334 19.04 57.666 21.292 60.644 21.292C63.622 21.292 66.01 18.992 66.01 16.054C66.01 13.118 63.67 10.835 60.681 10.835ZM60.681 19.034C59.086 19.034 57.884 17.753 57.884 16.054C57.884 14.354 59.044 13.109 60.644 13.109C62.244 13.109 63.46 14.391 63.46 16.091C63.46 17.791 62.291 19.034 60.681 19.034ZM72.413 11.038H69.965V8.535C69.965 8.49177 69.9478 8.45031 69.9173 8.41974C69.8867 8.38917 69.8452 8.372 69.802 8.372H67.578C67.5348 8.372 67.4933 8.38917 67.4627 8.41974C67.4322 8.45031 67.415 8.49177 67.415 8.535V11.038H66.345C66.3019 11.0383 66.2607 11.0556 66.2304 11.0861C66.2 11.1166 66.183 11.1579 66.183 11.201V13.113C66.183 13.203 66.255 13.276 66.345 13.276H67.415V18.224C67.415 20.224 68.41 21.237 70.372 21.237C71.17 21.237 71.832 21.072 72.457 20.719C72.4821 20.7048 72.5029 20.6841 72.5173 20.6591C72.5317 20.6342 72.5392 20.6058 72.539 20.577V18.757C72.5392 18.7291 72.5323 18.7016 72.5188 18.6772C72.5054 18.6527 72.4859 18.6321 72.4622 18.6174C72.4385 18.6026 72.4114 18.5942 72.3836 18.5929C72.3557 18.5916 72.3279 18.5975 72.303 18.61C71.8997 18.8196 71.4515 18.9281 70.997 18.926C70.283 18.926 69.965 18.602 69.965 17.876V13.277H72.413C72.503 13.277 72.575 13.204 72.575 13.114V11.202C72.5757 11.1807 72.572 11.1594 72.5643 11.1395C72.5565 11.1196 72.5448 11.1015 72.5298 11.0863C72.5149 11.0711 72.497 11.059 72.4773 11.0509C72.4575 11.0428 72.4363 11.0387 72.415 11.039L72.413 11.038ZM80.943 11.048V10.741C80.943 9.836 81.29 9.433 82.068 9.433C82.532 9.433 82.904 9.525 83.321 9.664C83.3455 9.67207 83.3716 9.67421 83.3971 9.67025C83.4225 9.66628 83.4467 9.65633 83.4676 9.64119C83.4885 9.62606 83.5055 9.60619 83.5172 9.58321C83.5289 9.56023 83.535 9.53479 83.535 9.509V7.634C83.535 7.59911 83.5239 7.56513 83.5032 7.53705C83.4825 7.50897 83.4533 7.48827 83.42 7.478C82.8206 7.29495 82.1967 7.20523 81.57 7.212C79.516 7.212 78.43 8.369 78.43 10.557V11.028H77.36C77.317 11.0285 77.276 11.0459 77.2457 11.0764C77.2154 11.1069 77.1983 11.148 77.198 11.191V13.113C77.198 13.203 77.271 13.276 77.361 13.276H78.43V20.908C78.43 20.998 78.502 21.071 78.592 21.071H80.817C80.907 21.071 80.98 20.998 80.98 20.908V13.277H83.057L86.239 20.907C85.879 21.708 85.523 21.867 85.038 21.867C84.646 21.867 84.233 21.75 83.811 21.52C83.7913 21.5092 83.7697 21.5025 83.7473 21.5003C83.725 21.498 83.7024 21.5003 83.681 21.507C83.6598 21.5143 83.6404 21.5259 83.6239 21.5411C83.6074 21.5562 83.5941 21.5746 83.585 21.595L82.831 23.25C82.8139 23.2874 82.8115 23.3298 82.8245 23.3688C82.8375 23.4078 82.8649 23.4404 82.901 23.46C83.689 23.886 84.399 24.068 85.278 24.068C86.92 24.068 87.828 23.303 88.628 21.244L92.488 11.271C92.4977 11.2464 92.5013 11.2198 92.4985 11.1935C92.4957 11.1672 92.4865 11.142 92.4717 11.12C92.4569 11.0981 92.437 11.08 92.4137 11.0675C92.3905 11.0549 92.3645 11.0483 92.338 11.048H90.022C89.9879 11.048 89.9547 11.0585 89.9269 11.0783C89.8992 11.098 89.8782 11.1258 89.867 11.158L87.495 17.935L84.896 11.153C84.8843 11.1222 84.8634 11.0956 84.8363 11.0769C84.8092 11.0581 84.777 11.0481 84.744 11.048H80.943ZM75.998 11.038H73.773C73.7298 11.038 73.6883 11.0552 73.6577 11.0857C73.6272 11.1163 73.61 11.1578 73.61 11.201V20.908C73.61 20.998 73.683 21.071 73.773 21.071H75.998C76.088 21.071 76.161 20.998 76.161 20.908V11.202C76.161 11.1588 76.1438 11.1173 76.1133 11.0867C76.0827 11.0562 76.0412 11.038 75.998 11.038ZM74.898 6.618C74.6884 6.61774 74.4808 6.65876 74.2871 6.73872C74.0934 6.81869 73.9173 6.93603 73.7689 7.08404C73.6205 7.23206 73.5027 7.40785 73.4223 7.60139C73.3418 7.79493 73.3003 8.00241 73.3 8.212C73.2997 8.42159 73.3408 8.62918 73.4207 8.82292C73.5007 9.01665 73.618 9.19274 73.766 9.34113C73.9141 9.48952 74.0899 9.6073 74.2834 9.68775C74.4769 9.7682 74.6844 9.80974 74.894 9.81C75.3173 9.81066 75.7235 9.64315 76.0233 9.34431C76.3231 9.04547 76.4918 8.63979 76.4925 8.2165C76.4932 7.79321 76.3256 7.387 76.0268 7.08722C75.728 6.78745 75.3213 6.61866 74.898 6.618Z" fill="#999999"/>
</svg>
