<svg width="14" height="14" viewBox="0 0 14 14" fill="none" xmlns="http://www.w3.org/2000/svg">
<path d="M7.72453 1.15621L7.32386 1.39392C6.88287 1.65432 6.66279 1.78535 6.42004 1.81559C6.17729 1.84583 5.93957 1.77359 5.46499 1.6266L5.0324 1.49388C3.36 0.978976 2.52339 0.721103 2.02108 1.18141C1.51877 1.64172 1.68257 2.51445 2.01016 4.25993L2.09416 4.711C2.18739 5.20658 2.23443 5.45522 2.17899 5.69713C2.12356 5.93988 1.9732 6.14904 1.67165 6.56651L1.39698 6.94786C0.336924 8.4195 -0.193942 9.15532 0.0647714 9.76514C0.323484 10.375 1.20042 10.4556 2.95345 10.616L3.40704 10.658C3.90431 10.7034 4.15378 10.7252 4.3621 10.8454C4.57125 10.9646 4.71489 11.1671 5.00384 11.5719L5.26759 11.9398C6.28396 13.3644 6.79215 14.0759 7.45489 13.9936C8.11764 13.9096 8.49563 13.0864 9.25076 11.4409L9.44648 11.015C9.55568 10.7765 9.63799 10.5984 9.71611 10.459L12.9282 13.671C13.0267 13.7695 13.1602 13.8248 13.2995 13.8248C13.4387 13.8248 13.5723 13.7695 13.6707 13.671C13.7692 13.5726 13.8245 13.439 13.8245 13.2998C13.8245 13.1605 13.7692 13.027 13.6707 12.9285L10.5687 9.82646L10.8568 9.72398L11.2936 9.57111C12.9828 8.97976 13.8278 8.68409 13.9782 8.02303C14.1294 7.36112 13.4859 6.7723 12.1999 5.59465L11.8673 5.28974C11.5019 4.95543 11.3196 4.78743 11.2247 4.564C11.1298 4.34057 11.134 4.08689 11.1407 3.57787L11.1491 3.11504C11.176 1.32589 11.1894 0.43047 10.6199 0.104559C10.0504 -0.221352 9.27596 0.238116 7.72453 1.15621Z" fill="#916CE7"/>
</svg>
