<svg width="86" height="23" viewBox="0 0 86 23" fill="none" xmlns="http://www.w3.org/2000/svg">
<path d="M20.817 6.614V5.74C19.7473 5.74057 18.699 5.44012 17.792 4.873C18.5943 5.7542 19.6519 6.36257 20.817 6.613V6.614ZM15.181 0.998C15.1541 0.842178 15.1331 0.6854 15.118 0.528V0H11.005V16.387C11.0029 17.3031 10.638 18.1811 9.99008 18.8288C9.3422 19.4765 8.46412 19.8412 7.54801 19.843C7.00771 19.8443 6.47481 19.7175 5.99301 19.473C6.3147 19.8984 6.73063 20.2434 7.20812 20.4809C7.68562 20.7184 8.21169 20.842 8.74501 20.842C9.66146 20.8404 10.5399 20.4757 11.1881 19.8278C11.8362 19.1798 12.2012 18.3015 12.203 17.385V0.998H15.183H15.181ZM8.59601 9.804V8.874C8.25273 8.82626 7.90658 8.8022 7.56001 8.802C3.38401 8.802 5.88483e-06 12.197 5.88483e-06 16.385C-0.00154443 17.6295 0.303244 18.8553 0.887476 19.9542C1.47171 21.0531 2.31743 21.9913 3.35001 22.686C1.96576 21.269 1.19209 19.3659 1.19501 17.385C1.19501 13.25 4.49301 9.889 8.59501 9.804H8.59601ZM68.484 20.537C71.47 20.537 73.893 18.127 73.893 15.153C73.893 12.179 71.47 9.768 68.483 9.768H67.669C70.656 9.768 73.079 12.178 73.079 15.153C73.079 18.126 70.656 20.537 67.669 20.537H68.484ZM67.594 9.766H66.779C63.793 9.766 61.37 12.177 61.37 15.151C61.37 18.125 63.793 20.535 66.78 20.535H67.594C64.606 20.535 62.185 18.125 62.185 15.151C62.185 12.177 64.606 9.766 67.594 9.766ZM26.472 7.334V10.062H29.656V20.462H32.843V10.135H35.437L36.326 7.332H26.472V7.333V7.334ZM52.553 7.334V10.062H55.738V20.462H58.924V10.135H61.518L62.408 7.332H52.553V7.333V7.334ZM36.919 8.881C36.919 8.026 37.615 7.332 38.474 7.332C39.333 7.332 40.031 8.026 40.031 8.882C40.031 9.736 39.335 10.43 38.474 10.43C38.2702 10.4304 38.0683 10.3906 37.8799 10.313C37.6914 10.2354 37.5201 10.1214 37.3757 9.97755C37.2313 9.83371 37.1166 9.66284 37.0383 9.4747C36.9599 9.28655 36.9194 9.08481 36.919 8.881ZM36.919 11.537H40.029V20.463H36.919V11.537ZM41.364 7.332V20.464H44.476V17.071L45.44 16.185L48.477 20.537H51.811L47.439 14.194L51.366 10.358H47.586L44.474 13.456V7.333H41.362H41.364V7.332ZM74.93 7.332V20.464H78.042V17.071L79.004 16.185L82.044 20.537H85.377L81.005 14.194L84.932 10.358H81.152L78.04 13.456V7.333H74.929H74.931L74.93 7.332Z" fill="#999999"/>
</svg>
