<svg width="86" height="25" viewBox="0 0 86 25" fill="none" xmlns="http://www.w3.org/2000/svg">
<path d="M16.317 9.013C17.9779 10.2053 19.9715 10.8455 22.016 10.843V6.74C21.614 6.74 21.213 6.697 20.818 6.614V9.843C18.7735 9.84576 16.7798 9.20557 15.119 8.013V16.385C15.119 20.573 11.735 23.968 7.56103 23.968C6.06184 23.9703 4.59629 23.5238 3.35303 22.686C4.05519 23.409 4.89545 23.9835 5.82393 24.3755C6.75241 24.7675 7.75019 24.969 8.75803 24.968C12.934 24.968 16.318 21.573 16.318 17.385L16.317 9.013ZM17.794 4.875C16.9486 3.95068 16.4298 2.77455 16.317 1.527V1H15.182C15.3212 1.79275 15.6255 2.54739 16.0751 3.21496C16.5247 3.88252 17.1097 4.4481 17.792 4.875H17.794ZM5.99203 19.473C5.53291 18.8694 5.28517 18.1314 5.28703 17.373C5.28659 16.8287 5.41447 16.2919 5.6603 15.8063C5.90612 15.3206 6.26297 14.8997 6.70189 14.5778C7.14081 14.2559 7.64944 14.0419 8.18651 13.9534C8.72359 13.8648 9.27398 13.9041 9.79303 14.068V9.873C9.39682 9.81826 8.99691 9.79485 8.59703 9.803V13.068C8.07786 12.9037 7.52725 12.8641 6.98991 12.9525C6.45257 13.0409 5.94366 13.2548 5.50448 13.5767C5.06531 13.8987 4.70826 14.3197 4.46232 14.8056C4.21638 15.2914 4.08849 15.8284 4.08903 16.373C4.08903 17.728 4.86403 18.9 5.99203 19.473Z" fill="#999999"/>
<path d="M15.1181 8.015C16.7789 9.20732 18.7725 9.84749 20.8171 9.845V6.615C19.6516 6.36483 18.5935 5.75643 17.7911 4.875C17.1088 4.44801 16.5239 3.8824 16.0743 3.21485C15.6247 2.5473 15.3203 1.79271 15.1811 1H12.2011V17.387C12.1992 18.3034 11.8342 19.1816 11.1861 19.8294C10.5379 20.4772 9.65942 20.8417 8.74305 20.843C8.20974 20.843 7.68367 20.7194 7.20617 20.4819C6.72867 20.2444 6.31274 19.8994 5.99105 19.474C5.41851 19.1842 4.93754 18.7413 4.60159 18.1946C4.26564 17.6479 4.08787 17.0187 4.08805 16.377C4.08736 15.8324 4.21513 15.2952 4.461 14.8092C4.70688 14.3233 5.06391 13.9021 5.50311 13.58C5.9423 13.2579 6.45128 13.044 6.98869 12.9555C7.5261 12.8671 8.0768 12.9066 8.59605 13.071V9.807C4.49505 9.892 1.19605 13.253 1.19605 17.388C1.19288 19.3692 1.96657 21.2728 3.35105 22.69C4.59443 23.5275 6.05991 23.974 7.55905 23.972C11.7351 23.972 15.1181 20.576 15.1181 16.389V8.014V8.015Z" fill="#999999"/>
<path d="M20.817 6.614V5.74C19.7473 5.74057 18.699 5.44012 17.792 4.873C18.5943 5.7542 19.6519 6.36257 20.817 6.613V6.614ZM15.181 0.998C15.1541 0.842178 15.1331 0.6854 15.118 0.528V0H11.005V16.387C11.0029 17.3031 10.638 18.1811 9.99008 18.8288C9.3422 19.4765 8.46412 19.8412 7.54801 19.843C7.00771 19.8443 6.47481 19.7175 5.99301 19.473C6.3147 19.8984 6.73063 20.2434 7.20812 20.4809C7.68562 20.7184 8.21169 20.842 8.74501 20.842C9.66146 20.8404 10.5399 20.4757 11.1881 19.8278C11.8362 19.1798 12.2012 18.3015 12.203 17.385V0.998H15.183H15.181ZM8.59601 9.804V8.874C8.25273 8.82626 7.90658 8.8022 7.56001 8.802C3.38401 8.802 5.88483e-06 12.197 5.88483e-06 16.385C-0.00154443 17.6295 0.303244 18.8553 0.887476 19.9542C1.47171 21.0531 2.31743 21.9913 3.35001 22.686C1.96576 21.269 1.19209 19.3659 1.19501 17.385C1.19501 13.25 4.49301 9.889 8.59501 9.804H8.59601ZM68.484 20.537C71.47 20.537 73.893 18.127 73.893 15.153C73.893 12.179 71.47 9.768 68.483 9.768H67.669C70.656 9.768 73.079 12.178 73.079 15.153C73.079 18.126 70.656 20.537 67.669 20.537H68.484ZM67.594 9.766H66.779C63.793 9.766 61.37 12.177 61.37 15.151C61.37 18.125 63.793 20.535 66.78 20.535H67.594C64.606 20.535 62.185 18.125 62.185 15.151C62.185 12.177 64.606 9.766 67.594 9.766ZM26.472 7.334V10.062H29.656V20.462H32.843V10.135H35.437L36.326 7.332H26.472V7.333V7.334ZM52.553 7.334V10.062H55.738V20.462H58.924V10.135H61.518L62.408 7.332H52.553V7.333V7.334ZM36.919 8.881C36.919 8.026 37.615 7.332 38.474 7.332C39.333 7.332 40.031 8.026 40.031 8.882C40.031 9.736 39.335 10.43 38.474 10.43C38.2702 10.4304 38.0683 10.3906 37.8799 10.313C37.6914 10.2354 37.5201 10.1214 37.3757 9.97755C37.2313 9.83371 37.1166 9.66284 37.0383 9.4747C36.9599 9.28655 36.9194 9.08481 36.919 8.881ZM36.919 11.537H40.029V20.463H36.919V11.537ZM41.364 7.332V20.464H44.476V17.071L45.44 16.185L48.477 20.537H51.811L47.439 14.194L51.366 10.358H47.586L44.474 13.456V7.333H41.362H41.364V7.332ZM74.93 7.332V20.464H78.042V17.071L79.004 16.185L82.044 20.537H85.377L81.005 14.194L84.932 10.358H81.152L78.04 13.456V7.333H74.929H74.931L74.93 7.332Z" fill="#999999"/>
<path d="M67.67 20.537C70.657 20.537 73.08 18.127 73.08 15.153C73.08 12.179 70.657 9.76801 67.67 9.76801H67.596C64.609 9.76801 62.186 12.178 62.186 15.153C62.186 18.126 64.609 20.537 67.596 20.537H67.67ZM65.002 15.153C65.0036 14.457 65.2816 13.7901 65.7748 13.299C66.268 12.8078 66.936 12.5327 67.632 12.534C67.9768 12.5331 68.3184 12.6001 68.6373 12.7312C68.9562 12.8624 69.2462 13.055 69.4906 13.2983C69.735 13.5415 69.9291 13.8304 70.0618 14.1487C70.1945 14.4669 70.2633 14.8082 70.264 15.153C70.2633 15.4977 70.1946 15.8388 70.0619 16.1569C69.9292 16.4751 69.7352 16.7639 69.4909 17.0071C69.2466 17.2502 68.9567 17.4428 68.638 17.5739C68.3192 17.7049 67.9777 17.7719 67.633 17.771C66.9372 17.7723 66.2693 17.4973 65.7761 17.0064C65.283 16.5155 65.0039 15.8489 65.002 15.153Z" fill="#999999"/>
</svg>
