<svg width="91" height="24" viewBox="0 0 91 24" fill="none" xmlns="http://www.w3.org/2000/svg">
<path fill-rule="evenodd" clip-rule="evenodd" d="M11.7647 0C12.2845 0 12.7059 0.421379 12.7059 0.941176V6.11765C12.7059 6.63744 12.2845 7.05882 11.7647 7.05882C11.2449 7.05882 10.8235 6.63744 10.8235 6.11765V0.941176C10.8235 0.421379 11.2449 0 11.7647 0ZM16.9412 0C17.461 0 17.8824 0.421379 17.8824 0.941176V12.2353H12.7059V19.2941H16.4706V17.4118C16.4706 16.892 16.892 16.4706 17.4118 16.4706C17.9316 16.4706 18.3529 16.892 18.3529 17.4118V23.0588C18.3529 23.5786 17.9316 24 17.4118 24C16.892 24 16.4706 23.5786 16.4706 23.0588V21.1765H12.7059V23.0588C12.7059 23.5786 12.2845 24 11.7647 24C11.2449 24 10.8235 23.5786 10.8235 23.0588V10.3529H16V0.941176C16 0.421379 16.4214 0 16.9412 0ZM6.58824 2.82353C7.10803 2.82353 7.52941 3.24491 7.52941 3.76471V20.2353C7.52941 20.7551 7.10803 21.1765 6.58824 21.1765C6.06844 21.1765 5.64706 20.7551 5.64706 20.2353V8.47059H1.88235V12.2353C1.88235 12.7551 1.46097 13.1765 0.941177 13.1765C0.421379 13.1765 0 12.7551 0 12.2353V6.11765C0 5.59785 0.421379 5.17647 0.941177 5.17647C1.46097 5.17647 1.88235 5.59785 1.88235 6.11765V6.58824H5.64706V3.76471C5.64706 3.24491 6.06844 2.82353 6.58824 2.82353ZM23.0588 2.82353C23.5786 2.82353 24 3.24491 24 3.76471V7.52941H26.8235V6.11765C26.8235 5.59785 27.2449 5.17647 27.7647 5.17647C28.2845 5.17647 28.7059 5.59785 28.7059 6.11765V17.8824C28.7059 18.4022 28.2845 18.8235 27.7647 18.8235C27.2449 18.8235 26.8235 18.4022 26.8235 17.8824V16.9412H24V19.2941C24 19.8139 23.5786 20.2353 23.0588 20.2353C22.539 20.2353 22.1176 19.8139 22.1176 19.2941V3.76471C22.1176 3.24491 22.539 2.82353 23.0588 2.82353ZM24 15.0588H26.8235V9.41177H24V15.0588Z" fill="#CBCBCB"/>
<path d="M49.6983 18.3645H46.7313L44.1845 9.93617L41.6901 18.3645H38.7494L34.7058 5H37.6203L40.1934 13.4808L42.6878 5H45.6285L48.1753 13.4284L50.696 5H53.6104L49.6983 18.3645Z" fill="#CBCBCB"/>
<path d="M54.742 9.22725C54.7944 8.66713 54.917 8.13322 55.1095 7.62565C55.3196 7.11802 55.6172 6.67166 56.0023 6.28656C56.3874 5.90146 56.8688 5.59514 57.4464 5.36758C58.024 5.12252 58.6892 5 59.4418 5H61.0172C61.8049 5 62.4876 5.13127 63.0652 5.39385C63.6604 5.65641 64.1505 6.00649 64.5356 6.4441C64.9207 6.8642 65.2096 7.35426 65.4021 7.91451C65.5947 8.45703 65.6909 9.00842 65.6909 9.56866V18.3645H58.2341C57.6565 18.3645 57.14 18.2595 56.6849 18.0494C56.2299 17.8218 55.8448 17.5331 55.5297 17.1829C55.2321 16.8154 55.0045 16.3865 54.847 15.8964C54.7069 15.4063 54.6369 14.8812 54.6369 14.321C54.6369 13.7784 54.7157 13.2708 54.8732 12.7982C55.0307 12.3256 55.2583 11.9229 55.5559 11.5903C55.8535 11.2403 56.2211 10.9689 56.6587 10.7764C57.1138 10.5663 57.6214 10.4613 58.1815 10.4613H62.6713V10.1988C62.6713 9.88374 62.6451 9.59488 62.5926 9.33236C62.5401 9.05223 62.4439 8.81593 62.3038 8.62343C62.1638 8.43082 61.9537 8.28202 61.6737 8.17703C61.3936 8.05445 61.0172 7.99328 60.5446 7.99328H59.8882C59.188 7.99328 58.6892 8.09826 58.3916 8.30836C58.094 8.50085 57.8928 8.80719 57.7877 9.22725H54.742ZM55.1095 14.321C55.1095 14.7762 57.5339 15.1175 57.7089 15.345C57.9015 15.5551 58.1116 15.6601 58.339 15.6601H62.6713V12.982H58.339C58.1116 12.982 57.9015 13.0957 57.7089 13.3232C57.5339 13.5508 55.1095 13.8834 55.1095 14.321Z" fill="#CBCBCB"/>
<path d="M73.9978 18.3645H71.0571L67.0135 5H69.928L72.5011 13.4808L74.9955 5H77.9362L73.9978 18.3645Z" fill="#CBCBCB"/>
<path d="M79.3073 9.75242C79.3073 9.10479 79.4299 8.50085 79.6749 7.94073C79.92 7.36313 80.2438 6.85545 80.6464 6.41785C81.0489 5.98023 81.5128 5.6389 82.038 5.39385C82.563 5.13127 83.0882 5 83.6134 5H86.6066C87.2892 5 87.8931 5.14879 88.4183 5.44635C88.9609 5.72642 89.4072 6.09402 89.7574 6.54912C90.1249 6.98673 90.405 7.48559 90.5975 8.04571C90.8076 8.58836 90.9126 9.12226 90.9126 9.64743V13.0345H82.4055V13.7434C82.4055 14.3736 82.5806 14.8199 82.9307 15.0825C83.2808 15.345 83.7446 15.4764 84.3223 15.4764H90.44V18.417H83.6396C83.0445 18.417 82.4843 18.3032 81.9592 18.0757C81.4341 17.8306 80.9702 17.5068 80.5676 17.1042C80.1825 16.7016 79.8761 16.2202 79.6486 15.6601C79.4211 15.1 79.3073 14.4873 79.3073 13.8222V9.75242ZM82.4318 10.5401H85.1494L86.6722 12.2106L87.8669 10.5401V10.4088C87.8669 9.7262 87.6919 9.16596 87.3417 8.72842C86.9917 8.27328 86.5191 8.04571 85.9239 8.04571H84.296C84.016 8.04571 83.7622 8.11574 83.5346 8.2558C83.307 8.37826 83.1144 8.54466 82.9569 8.75463C82.7994 8.96473 82.6681 9.21851 82.563 9.51611C82.4755 9.79611 82.4318 10.0937 82.4318 10.4088V10.5401Z" fill="#CBCBCB"/>
</svg>
