<svg width="18" height="18" viewBox="0 0 18 18" fill="none" xmlns="http://www.w3.org/2000/svg">
<path d="M9 0C4.03031 0 0 4.02938 0 9C0.000974893 10.6257 0.445012 12.2203 1.28437 13.6125L0.0796873 18L4.56094 16.8234C5.91313 17.595 7.44317 18.0005 9 18C13.9706 18 18 13.9697 18 9C18 6.61305 17.0518 4.32387 15.364 2.63604C13.6761 0.948211 11.3869 0 9 0ZM5.91937 4.80188C6.06562 4.80188 6.21656 4.80094 6.34594 4.8075C6.50625 4.81125 6.68156 4.82344 6.84844 5.19281C7.04719 5.6325 7.48031 6.735 7.53562 6.84656C7.59187 6.95906 7.63031 7.09031 7.55344 7.23656C7.47937 7.38656 7.44094 7.4775 7.33312 7.60969C7.22156 7.73906 7.09875 7.89937 6.99844 7.99688C6.88594 8.10844 6.77062 8.23125 6.9 8.45344C7.02844 8.67656 7.47656 9.40687 8.13937 9.99562C8.99062 10.7569 9.70875 10.9894 9.93187 11.1019C10.1559 11.2144 10.2853 11.1956 10.4137 11.0456C10.5469 10.9003 10.9716 10.3988 11.1216 10.1747C11.2678 9.95156 11.4169 9.99 11.6194 10.0631C11.8256 10.1372 12.9206 10.6772 13.1447 10.7887C13.3678 10.9003 13.5141 10.9556 13.5703 11.0466C13.6284 11.1403 13.6284 11.5866 13.4428 12.1069C13.2581 12.6262 12.3478 13.1287 11.94 13.1644C11.5284 13.2019 11.1441 13.35 9.26437 12.6094C6.99562 11.7159 5.56594 9.39375 5.45437 9.24375C5.34188 9.09656 4.545 8.03531 4.545 6.94031C4.545 5.84156 5.12156 5.30344 5.32312 5.08031C5.39787 4.99521 5.48944 4.92653 5.59207 4.87861C5.69469 4.83068 5.80614 4.80455 5.91937 4.80188Z" fill="#916CE7"/>
</svg>
