<svg width="16" height="16" viewBox="0 0 16 16" fill="none" xmlns="http://www.w3.org/2000/svg">
<path fill-rule="evenodd" clip-rule="evenodd" d="M0 7.39998C0.151571 5.3878 1.05786 3.5072 2.53729 2.13494C4.01673 0.762682 5.96004 0.000110425 7.97792 0C7.31261 0 6.72027 0.290892 6.23449 0.736349C5.74967 1.17989 5.34069 1.79911 5.00948 2.53066C4.67635 3.26605 4.41714 4.12721 4.24241 5.06132C4.0999 5.83351 4.01486 6.61521 3.988 7.39998H0ZM0 8.60002H3.988C4.0168 9.40166 4.10224 10.1908 4.24241 10.9396C4.41714 11.8738 4.67635 12.7339 5.00948 13.4703C5.34069 14.2009 5.74967 14.8201 6.23449 15.2636C6.72123 15.7091 7.31261 16 7.97792 16C5.96004 15.9999 4.01673 15.2373 2.53729 13.8651C1.05786 12.4928 0.151571 10.6122 0 8.60002Z" fill="#CCCCCC"/>
<path d="M7.97651 1.11652C7.7557 1.11652 7.47153 1.20964 7.14128 1.51205C6.80814 1.81638 6.47501 2.29448 6.18124 2.94539C5.88843 3.5915 5.65034 4.37105 5.48713 5.24372C5.35575 5.95572 5.27681 6.67641 5.25096 7.39997H10.7021C10.6759 6.67638 10.5966 5.9557 10.4649 5.24372C10.3017 4.37105 10.0646 3.5915 9.77178 2.94539C9.47705 2.29448 9.14392 1.81638 8.81174 1.51205C8.48053 1.20964 8.19636 1.11652 7.97651 1.11652ZM5.48713 10.7572C5.65034 11.6289 5.88843 12.4085 6.18028 13.0556C6.47501 13.7055 6.80814 14.1836 7.14128 14.4879C7.47153 14.7903 7.7557 14.8844 7.97651 14.8844C8.19636 14.8844 8.48053 14.7903 8.81174 14.4879C9.14392 14.1836 9.47705 13.7055 9.77178 13.0556C10.0646 12.4085 10.3017 11.6289 10.4649 10.7572C10.5967 10.0449 10.6759 9.32392 10.7021 8.60002H5.25C5.27784 9.34212 5.35848 10.0698 5.48713 10.7572Z" fill="#CCCCCC"/>
<path d="M7.97656 0C8.64091 0 9.23325 0.290892 9.71999 0.736349C10.2039 1.17989 10.6128 1.79911 10.945 2.53066C11.2772 3.26605 11.5364 4.12721 11.7111 5.06132C11.8522 5.81015 11.9377 6.5993 11.9655 7.39998H15.9545C15.8029 5.3878 14.8966 3.5072 13.4172 2.13494C11.9378 0.762682 9.99444 0.000110425 7.97656 0ZM11.7111 10.9396C11.5364 11.8738 11.2772 12.7339 10.945 13.4703C10.6138 14.2009 10.2039 14.8201 9.71999 15.2636C9.23325 15.7091 8.64091 16 7.97656 16C9.99444 15.9999 11.9378 15.2373 13.4172 13.8651C14.8966 12.4928 15.8029 10.6122 15.9545 8.60002H11.9655C11.939 9.38513 11.8539 10.1672 11.7111 10.9396Z" fill="#CCCCCC"/>
</svg>
