<svg width="18" height="14" viewBox="0 0 18 14" fill="none" xmlns="http://www.w3.org/2000/svg">
<path d="M0 4.17456V11.4546C0 12.1297 0.268181 12.7771 0.745546 13.2545C1.22291 13.7318 1.87036 14 2.54545 14H15.2727C15.9478 14 16.5953 13.7318 17.0726 13.2545C17.55 12.7771 17.8182 12.1297 17.8182 11.4546V4.17456L10.2429 8.83529C9.84178 9.08207 9.38005 9.21273 8.90909 9.21273C8.43813 9.21273 7.9764 9.08207 7.57527 8.83529L0 4.17456Z" fill="#916CE7"/>
<path d="M17.8182 2.67952V2.54545C17.8182 1.87036 17.55 1.22291 17.0726 0.745546C16.5953 0.268181 15.9478 0 15.2727 0H2.54545C1.87036 0 1.22291 0.268181 0.745546 0.745546C0.268181 1.22291 0 1.87036 0 2.54545V2.67952L8.24218 7.75176C8.44275 7.87515 8.67361 7.94048 8.90909 7.94048C9.14457 7.94048 9.37544 7.87515 9.576 7.75176L17.8182 2.67952Z" fill="#916CE7"/>
</svg>
