<svg width="18" height="18" viewBox="0 0 18 18" fill="none" xmlns="http://www.w3.org/2000/svg">
<path d="M5.11022 0.666667C5.11022 0.489856 5.03999 0.320286 4.91496 0.195262C4.78994 0.0702379 4.62037 0 4.44356 0C4.26675 0 4.09718 0.0702379 3.97215 0.195262C3.84713 0.320286 3.77689 0.489856 3.77689 0.666667V2.07111C2.49689 2.17333 1.65778 2.424 1.04089 3.04178C0.423114 3.65867 0.172447 4.49867 0.0693359 5.77778H17.7067C17.6036 4.49778 17.3529 3.65867 16.7351 3.04178C16.1182 2.424 15.2782 2.17333 13.9991 2.07022V0.666667C13.9991 0.489856 13.9289 0.320286 13.8039 0.195262C13.6788 0.0702379 13.5093 0 13.3324 0C13.1556 0 12.9861 0.0702379 12.861 0.195262C12.736 0.320286 12.6658 0.489856 12.6658 0.666667V2.01156C12.0747 2 11.4116 2 10.6658 2H7.11022C6.36445 2 5.70134 2 5.11022 2.01156V0.666667Z" fill="#916CE7"/>
<path fill-rule="evenodd" clip-rule="evenodd" d="M17.7778 9.11111V10.8889C17.7778 14.2409 17.7778 15.9173 16.736 16.9582C15.6951 18 14.0187 18 10.6667 18H7.11111C3.75911 18 2.08267 18 1.04178 16.9582C-1.05964e-07 15.9173 0 14.2409 0 10.8889V9.11111C0 8.36534 9.93411e-09 7.70223 0.0115556 7.11111H17.7662C17.7778 7.70223 17.7778 8.36534 17.7778 9.11111ZM12.4444 10.2222C12.6213 10.2222 12.7908 10.2925 12.9159 10.4175C13.0409 10.5425 13.1111 10.7121 13.1111 10.8889V12H14.2222C14.399 12 14.5686 12.0702 14.6936 12.1953C14.8187 12.3203 14.8889 12.4899 14.8889 12.6667C14.8889 12.8435 14.8187 13.0131 14.6936 13.1381C14.5686 13.2631 14.399 13.3333 14.2222 13.3333H13.1111V14.4444C13.1111 14.6213 13.0409 14.7908 12.9159 14.9159C12.7908 15.0409 12.6213 15.1111 12.4444 15.1111C12.2676 15.1111 12.0981 15.0409 11.973 14.9159C11.848 14.7908 11.7778 14.6213 11.7778 14.4444V13.3333H10.6667C10.4899 13.3333 10.3203 13.2631 10.1953 13.1381C10.0702 13.0131 10 12.8435 10 12.6667C10 12.4899 10.0702 12.3203 10.1953 12.1953C10.3203 12.0702 10.4899 12 10.6667 12H11.7778V10.8889C11.7778 10.7121 11.848 10.5425 11.973 10.4175C12.0981 10.2925 12.2676 10.2222 12.4444 10.2222Z" fill="#916CE7"/>
</svg>
