<svg width="16" height="16" viewBox="0 0 16 16" fill="none" xmlns="http://www.w3.org/2000/svg">
<path d="M6.25885 4.47503C7.13896 2.89703 7.57861 2.10763 8.23644 2.10763C8.89428 2.10763 9.33393 2.89703 10.214 4.47503L10.4412 4.88362C10.6913 5.33226 10.8171 5.55617 11.0116 5.70408C11.2061 5.85199 11.4488 5.90674 11.935 6.01706L12.3763 6.11676C14.0851 6.50329 14.9398 6.69696 15.1425 7.35071C15.346 8.00446 14.7633 8.68518 13.598 10.0474L13.2973 10.3988C12.9663 10.7862 12.8013 10.9798 12.7261 11.2193C12.6525 11.4587 12.677 11.7169 12.7269 12.2326L12.7727 12.7033C12.9492 14.5207 13.0366 15.4294 12.5046 15.8331C11.9726 16.2376 11.1726 15.8691 9.57336 15.1328L9.15905 14.9416C8.70469 14.7324 8.47751 14.6278 8.23644 14.6278C7.99537 14.6278 7.76819 14.7324 7.31302 14.9416L6.89952 15.1328C5.30028 15.8683 4.50026 16.2376 3.96827 15.8331C3.43628 15.4294 3.52453 14.5207 3.70023 12.7033L3.74599 12.2334C3.79584 11.7169 3.82117 11.4587 3.74599 11.2201C3.67245 10.9798 3.50656 10.787 3.1756 10.3996L2.87405 10.0466C1.70956 8.68518 1.1269 8.00364 1.32957 7.34989C1.53386 6.69614 2.38783 6.50329 4.09657 6.11676L4.53785 6.01706C5.02408 5.90674 5.26678 5.85199 5.46127 5.70408C5.65658 5.55698 5.78161 5.33226 6.03167 4.88362L6.25885 4.47503ZM1.99966 0.0646604C2.02418 -0.0211444 2.17699 -0.0219616 2.20232 0.0646604C2.31673 0.458545 2.5292 1.04038 2.85035 1.3599C3.17151 1.67861 3.7558 1.88699 4.14968 1.99895C4.23712 2.02346 4.23712 2.17709 4.15132 2.20243C3.75743 2.31683 3.17478 2.5293 2.85526 2.85046C2.53655 3.17161 2.32817 3.7559 2.21622 4.14979C2.1917 4.23641 2.03807 4.23722 2.01274 4.1506C1.89833 3.75672 1.68586 3.17488 1.36471 2.85536C1.04355 2.53665 0.460078 2.32827 0.0653765 2.21632C-0.0212455 2.1918 -0.0220626 2.03817 0.0645593 2.01284C0.458444 1.89843 1.04028 1.68596 1.3598 1.36481C1.67851 1.04365 1.88771 0.458545 1.99966 0.0646604Z" fill="#916CE7"/>
<path fill-rule="evenodd" clip-rule="evenodd" d="M13.5478 0.677521C13.7103 0.677521 13.8662 0.742093 13.9811 0.857032C14.0961 0.971972 14.1606 1.12786 14.1606 1.29041V1.49471H14.3649C14.5275 1.49471 14.6834 1.55928 14.7983 1.67422C14.9133 1.78916 14.9778 1.94505 14.9778 2.1076C14.9778 2.27015 14.9133 2.42604 14.7983 2.54098C14.6834 2.65592 14.5275 2.72049 14.3649 2.72049H14.1606V2.92479C14.1606 3.08734 14.0961 3.24323 13.9811 3.35817C13.8662 3.47311 13.7103 3.53768 13.5478 3.53768C13.3852 3.53768 13.2293 3.47311 13.1144 3.35817C12.9994 3.24323 12.9349 3.08734 12.9349 2.92479V2.72049H12.7306C12.568 2.72049 12.4121 2.65592 12.2972 2.54098C12.1822 2.42604 12.1177 2.27015 12.1177 2.1076C12.1177 1.94505 12.1822 1.78916 12.2972 1.67422C12.4121 1.55928 12.568 1.49471 12.7306 1.49471H12.9349V1.29041C12.9349 1.12786 12.9994 0.971972 13.1144 0.857032C13.2293 0.742093 13.3852 0.677521 13.5478 0.677521Z" fill="#916CE7"/>
</svg>
