<svg width="17" height="17" viewBox="0 0 17 17" fill="none" xmlns="http://www.w3.org/2000/svg">
<path d="M9.80976 10.3658C10.4481 12.2577 10.8773 14.2138 11.0898 16.1992C10.2033 16.5095 9.27066 16.6676 8.33143 16.6667C6.67912 16.6692 5.0637 16.1782 3.69226 15.2567C4.3313 14.0725 5.20221 13.0291 6.25308 12.1887C7.30394 11.3483 8.51325 10.7281 9.80893 10.365L9.80976 10.3658ZM16.3089 10.7517C15.7139 12.7069 14.4227 14.3761 12.6798 15.4433C12.4467 13.612 12.0393 11.8072 11.4631 10.0533C13.1112 9.88302 14.7759 10.1229 16.3089 10.7517ZM8.45226 7.07083C8.72893 7.63583 8.98809 8.2125 9.22726 8.79833C6.3411 9.64422 3.89177 11.5695 2.38809 14.1742C1.54314 13.3084 0.895199 12.2702 0.488598 11.1308C0.0819964 9.99143 -0.0736671 8.77763 0.0322582 7.5725C2.81809 8.1625 5.75726 7.99083 8.45226 7.07083ZM14.7648 3.03667C16.1532 4.7322 16.8231 6.90362 16.6314 9.08667C14.7982 8.39666 12.8216 8.17607 10.8814 8.445C10.6136 7.76809 10.3203 7.1015 10.0023 6.44667C11.7875 5.61525 13.4025 4.4589 14.7648 3.03667ZM4.38643 0.991669C5.63175 2.4042 6.72914 3.94054 7.66143 5.57667C5.29627 6.32996 2.77556 6.45347 0.348092 5.935C0.986979 3.81773 2.43917 2.0401 4.38643 0.991669ZM8.33143 1.96032e-06C10.3214 1.96032e-06 12.1489 0.697502 13.5814 1.86167C12.341 3.16262 10.8649 4.21627 9.23143 4.96667C8.31143 3.31983 7.23419 1.76592 6.01476 0.326669C6.76779 0.109436 7.54769 -0.000535475 8.33143 1.96032e-06Z" fill="#CCCCCC"/>
</svg>
