<svg width="17" height="18" viewBox="0 0 17 18" fill="none" xmlns="http://www.w3.org/2000/svg">
<path fill-rule="evenodd" clip-rule="evenodd" d="M6.56348 2.50018C6.69266 2.13425 6.93216 1.81739 7.24896 1.59326C7.56576 1.36914 7.94427 1.24879 8.33234 1.24879C8.7204 1.24879 9.09891 1.36914 9.41572 1.59326C9.73252 1.81739 9.97201 2.13425 10.1012 2.50018C10.1594 2.65257 10.2748 2.77618 10.4228 2.84462C10.5709 2.91306 10.7399 2.9209 10.8936 2.86647C11.0474 2.81204 11.1738 2.69965 11.2458 2.55331C11.3178 2.40696 11.3298 2.23825 11.2791 2.08321C11.0635 1.47394 10.6644 0.946466 10.1367 0.573395C9.609 0.200324 8.97861 0 8.33234 0C7.68606 0 7.05567 0.200324 6.52795 0.573395C6.00023 0.946466 5.60113 1.47394 5.38557 2.08321C5.33028 2.23954 5.33935 2.41144 5.4108 2.56108C5.48224 2.71072 5.61021 2.82585 5.76654 2.88115C5.92287 2.93644 6.09477 2.92736 6.24441 2.85592C6.39405 2.78447 6.50918 2.65651 6.56448 2.50018H6.56348ZM0.62295 5.69992C0.579247 5.67187 0.532223 5.64937 0.482961 5.63293C0.606252 5.37356 0.772973 5.13717 0.975922 4.93398C1.95384 3.95806 3.52372 3.95806 6.66547 3.95806H9.9992C13.142 3.95806 14.7128 3.95806 15.6888 4.93398C15.8927 5.13797 16.0547 5.36795 16.1817 5.63293C16.1328 5.64945 16.0861 5.67195 16.0427 5.69992C14.2929 6.83783 13.1929 7.54978 12.279 8.00574C12.2488 7.85381 12.1633 7.71851 12.039 7.62608C11.9147 7.53365 11.7605 7.49068 11.6063 7.5055C11.4521 7.52032 11.3089 7.59188 11.2045 7.70629C11.1 7.82071 11.0418 7.96983 11.0411 8.12473V8.5057C9.27493 9.03869 7.39074 9.03869 5.62455 8.5057V8.12473C5.62512 7.96893 5.56748 7.81854 5.46292 7.70304C5.35836 7.58754 5.21444 7.51526 5.05935 7.50036C4.90427 7.48547 4.74922 7.52904 4.62459 7.62252C4.49996 7.71601 4.41475 7.85268 4.38565 8.00574C3.47372 7.54978 2.37281 6.83783 0.62295 5.69992ZM0 10.6245C0 8.99866 -1.49e-08 7.79475 0.134989 6.87483C2.03184 8.10773 3.24774 8.89467 4.37465 9.37863V9.7906C4.3728 9.95634 4.43686 10.116 4.55275 10.2346C4.66863 10.3531 4.82686 10.4207 4.9926 10.4225C5.15835 10.4244 5.31805 10.3603 5.43656 10.2445C5.55507 10.1286 5.6227 9.97034 5.62455 9.80459C7.39941 10.2726 9.26626 10.2726 11.0411 9.80459C11.043 9.97034 11.1106 10.1286 11.2291 10.2445C11.3476 10.3603 11.5073 10.4244 11.6731 10.4225C11.8388 10.4207 11.997 10.3531 12.1129 10.2346C12.2288 10.116 12.2929 9.95634 12.291 9.7906V9.37863C13.4169 8.89367 14.6328 8.10773 16.5307 6.87483C16.6657 7.79475 16.6657 8.99866 16.6657 10.6245C16.6657 13.7663 16.6657 15.3382 15.6888 16.3141C14.7128 17.29 13.142 17.29 9.9992 17.29H6.66647C3.52372 17.29 1.95284 17.29 0.976922 16.3141C-1.192e-07 15.3382 0 13.7663 0 10.6245Z" fill="#916CE7"/>
</svg>
