<svg width="12" height="18" viewBox="0 0 12 18" fill="none" xmlns="http://www.w3.org/2000/svg">
<path d="M3 18C4.65525 18 6 16.656 6 15V12H3C2.20435 12 1.44129 12.3161 0.87868 12.8787C0.316071 13.4413 0 14.2044 0 15C0 15.7956 0.316071 16.5587 0.87868 17.1213C1.44129 17.6839 2.20435 18 3 18ZM0 9C0 8.20435 0.316071 7.44129 0.87868 6.87868C1.44129 6.31607 2.20435 6 3 6H6V12H3C2.20435 12 1.44129 11.6839 0.87868 11.1213C0.316071 10.5587 0 9.79565 0 9ZM0 3C0 2.20435 0.316071 1.44129 0.87868 0.87868C1.44129 0.316071 2.20435 0 3 0L6 0V6H3C2.20435 6 1.44129 5.68393 0.87868 5.12132C0.316071 4.55871 0 3.79565 0 3ZM6 0H9C10.6552 0 12 1.344 12 3C12 4.656 10.6552 6 9 6H6V0ZM12 9C12 9.59334 11.8241 10.1734 11.4944 10.6667C11.1648 11.1601 10.6962 11.5446 10.148 11.7716C9.59987 11.9987 8.99667 12.0581 8.41473 11.9424C7.83278 11.8266 7.29824 11.5409 6.87868 11.1213C6.45912 10.7018 6.1734 10.1672 6.05764 9.58527C5.94189 9.00333 6.0013 8.40013 6.22836 7.85195C6.45542 7.30377 6.83994 6.83524 7.33329 6.50559C7.82664 6.17595 8.40666 6 9 6C10.6552 6 12 7.344 12 9Z" fill="#CCCCCC"/>
</svg>
