<svg width="18" height="15" viewBox="0 0 18 15" fill="none" xmlns="http://www.w3.org/2000/svg">
<path d="M5.31249 0.999C6.87649 0.374 7.80949 0 8.95849 0C10.1085 0 11.0415 0.374 12.6055 1L15.0795 1.99C15.8755 2.307 16.5195 2.565 16.9615 2.797C17.1855 2.914 17.4025 3.047 17.5695 3.207C17.7415 3.373 17.9175 3.622 17.9175 3.959C17.9175 4.295 17.7415 4.545 17.5695 4.709C17.387 4.87367 17.1823 5.01201 16.9615 5.12C16.5195 5.352 15.8755 5.61 15.0795 5.928L12.6055 6.918C11.0415 7.544 10.1085 7.917 8.95849 7.917C7.80949 7.917 6.87649 7.544 5.31249 6.917L2.83749 5.928C2.04249 5.61 1.39749 5.352 0.955488 5.12C0.735306 5.01182 0.531056 4.87386 0.348488 4.71C0.176488 4.545 0.000488281 4.295 0.000488281 3.959C0.000488281 3.622 0.176488 3.373 0.348488 3.208C0.515488 3.048 0.732488 2.914 0.955488 2.797C1.39849 2.565 2.04249 2.307 2.83749 1.989L5.31249 0.999Z" fill="#916CE7"/>
<path fill-rule="evenodd" clip-rule="evenodd" d="M1.0425 6.82699L1.0415 6.82599L1.0445 6.82799C1.0485 6.83099 1.0545 6.83799 1.0645 6.84499L1.1625 6.92399C1.2535 6.99399 1.3945 7.09699 1.5865 7.22199C1.9695 7.46999 2.5545 7.80199 3.3395 8.11599L5.6795 9.05199C7.3675 9.72699 8.0755 9.99999 8.9595 9.99999C9.8425 9.99999 10.5495 9.72699 12.2375 9.05199L14.5775 8.11599C15.3635 7.80199 15.9475 7.46999 16.3315 7.22199C16.519 7.10028 16.6999 6.96876 16.8735 6.82799L16.8755 6.82699V6.82499C16.9991 6.71439 17.1616 6.65742 17.3272 6.66661C17.4927 6.6758 17.6479 6.75039 17.7585 6.87399C17.8691 6.99758 17.9261 7.16004 17.9169 7.32563C17.9077 7.49123 17.8331 7.64639 17.7095 7.75699L17.7085 7.75799L17.7065 7.75999L17.7035 7.76299L17.6915 7.77299C17.6357 7.82156 17.5784 7.86825 17.5195 7.91299C17.4035 8.00299 17.2335 8.12599 17.0115 8.26999C16.5675 8.55799 15.9115 8.92899 15.0415 9.27699L12.7015 10.213L12.6055 10.251C11.0415 10.877 10.1085 11.251 8.9585 11.251C7.8095 11.251 6.8765 10.877 5.3125 10.251L5.2165 10.213L2.8765 9.27699C2.18882 9.0058 1.52907 8.66856 0.906503 8.26999C0.684214 8.1263 0.469588 7.97108 0.263504 7.80499C0.251095 7.79441 0.238761 7.78374 0.226503 7.77299L0.214503 7.76299L0.210504 7.75999L0.209504 7.75799H0.208503C0.0849126 7.64752 0.0102648 7.49249 0.000981777 7.32699C-0.00830127 7.16149 0.0485408 6.99908 0.159003 6.87549C0.269466 6.75189 0.424501 6.67725 0.590002 6.66796C0.755502 6.65868 0.917913 6.71552 1.0415 6.82599M1.0415 10.159C0.918053 10.0489 0.756012 9.99228 0.59088 10.0015C0.425747 10.0107 0.270987 10.0849 0.160503 10.208L1.0405 10.158L1.0415 10.159ZM1.0415 10.159L1.0445 10.161C1.08244 10.1947 1.12181 10.2267 1.1625 10.257C1.2535 10.327 1.3945 10.431 1.5865 10.555C1.9695 10.803 2.5545 11.135 3.3395 11.449L5.6795 12.385C7.3675 13.06 8.0755 13.334 8.9595 13.334C9.8425 13.334 10.5495 13.06 12.2375 12.385L14.5775 11.449C15.3635 11.135 15.9475 10.803 16.3315 10.555C16.519 10.4333 16.6999 10.3018 16.8735 10.161L16.8755 10.16V10.159C16.9367 10.1042 17.0081 10.0621 17.0856 10.0349C17.1631 10.0077 17.2452 9.99606 17.3272 10.0006C17.4091 10.0052 17.4894 10.0258 17.5635 10.0614C17.6375 10.097 17.7037 10.1468 17.7585 10.208C17.8133 10.2692 17.8554 10.3406 17.8826 10.4181C17.9098 10.4956 17.9214 10.5776 17.9169 10.6596C17.9123 10.7416 17.8917 10.8219 17.8561 10.8959C17.8205 10.9699 17.7707 11.0362 17.7095 11.091L17.7065 11.093L17.7035 11.096L17.6915 11.106C17.6363 11.1552 17.5789 11.2019 17.5195 11.246C17.4035 11.336 17.2335 11.459 17.0115 11.604C16.5675 11.892 15.9115 12.262 15.0415 12.61L12.7015 13.546L12.6055 13.585C11.0415 14.21 10.1085 14.584 8.9585 14.584C7.8095 14.584 6.8765 14.21 5.3125 13.584L5.2165 13.546L2.8765 12.61C2.18888 12.3391 1.52913 12.0022 0.906503 11.604C0.684191 11.46 0.469564 11.3044 0.263504 11.138C0.25107 11.1274 0.238736 11.1168 0.226503 11.106L0.214503 11.096L0.210504 11.093L0.209504 11.092L0.208503 11.091C0.147339 11.0362 0.0975752 10.9699 0.0620571 10.8958C0.026539 10.8218 0.00596303 10.7414 0.00150522 10.6594C-0.00295258 10.5774 0.00879529 10.4953 0.0360772 10.4179C0.0633592 10.3404 0.10564 10.2691 0.160503 10.208" fill="#916CE7"/>
</svg>
