<svg width="17" height="17" viewBox="0 0 17 17" fill="none" xmlns="http://www.w3.org/2000/svg">
<g clip-path="url(#clip0_2058_223)">
<path d="M3.01042 0.212494C1.34583 0.212494 0 1.55833 0 3.22291V13.7771C0 15.4417 1.34583 16.7875 3.01042 16.7875H13.9896C15.6542 16.7875 17 15.4417 17 13.7771V3.22291C17 1.55833 15.6542 0.212494 13.9896 0.212494H3.01042ZM12.9767 3.84624H14.4146C14.45 3.83916 14.4783 3.86749 14.4854 3.89583V10.6533C14.4854 10.7808 14.4925 10.9225 14.4996 11.0783C14.5137 11.2271 14.5208 11.3687 14.5279 11.4892C14.5279 11.5387 14.5067 11.5812 14.4571 11.6025C14.0887 11.7583 13.6992 11.8717 13.3025 11.9425C12.9412 12.0062 12.58 12.0417 12.2117 12.0417C11.6875 12.0487 11.1633 11.9425 10.6888 11.7229C10.2425 11.5175 9.87417 11.1775 9.61917 10.7596C9.35708 10.3275 9.22958 9.78916 9.22958 9.14458C9.2228 8.61549 9.36034 8.09456 9.62741 7.63778C9.89449 7.18101 10.281 6.80565 10.7454 6.55208C11.2413 6.27583 11.8363 6.14124 12.5375 6.14124C12.5729 6.14124 12.6225 6.14124 12.6862 6.14833C12.75 6.15541 12.8208 6.15541 12.9058 6.16249V3.92416C12.9058 3.87458 12.9271 3.84624 12.9767 3.84624ZM2.60667 4.46249H4.21458C4.25 4.46249 4.28542 4.46958 4.31375 4.47666C4.34208 4.49083 4.36333 4.51208 4.38458 4.54041C4.51917 4.84499 4.675 5.14958 4.83792 5.45416C5.00792 5.75874 5.17083 6.05624 5.34792 6.35374C5.51792 6.65124 5.67375 6.94874 5.8225 7.25333H5.83667C5.98542 6.94166 6.14125 6.63708 6.29708 6.33958C6.45292 6.04208 6.61583 5.74458 6.77875 5.44708C6.94167 5.14958 7.0975 4.84499 7.25333 4.55458C7.26042 4.52624 7.27458 4.49791 7.29583 4.48374C7.32405 4.46877 7.3565 4.46378 7.38792 4.46958H8.8825C8.91792 4.46249 8.95333 4.48374 8.96042 4.51916C8.9675 4.52624 8.95333 4.55458 8.93917 4.56874L6.81417 8.07499L9.08083 11.7937C9.095 11.8221 9.10208 11.8504 9.095 11.8787C9.08792 11.9071 9.05958 11.8858 9.01708 11.8929H7.395C7.28167 11.8929 7.20375 11.8858 7.15417 11.815C7.00542 11.5175 6.84958 11.2271 6.70083 10.9296C6.55208 10.6392 6.38917 10.3417 6.21917 10.0371C6.04917 9.73249 5.87917 9.42791 5.70917 9.11624H5.695C5.54625 9.42083 5.38333 9.72541 5.22042 10.03C5.0575 10.3346 4.89458 10.6392 4.73875 10.9367C4.57583 11.2342 4.41292 11.5387 4.25 11.8292C4.22167 11.9 4.165 11.9071 4.08708 11.9071H2.52875C2.50042 11.9071 2.47917 11.9212 2.47917 11.8858C2.47605 11.8726 2.4757 11.8588 2.47813 11.8454C2.48057 11.832 2.48575 11.8192 2.49333 11.8079L4.69625 8.19541L2.55 4.56166C2.52875 4.53333 2.52167 4.50499 2.53583 4.49083C2.55 4.46958 2.57833 4.46249 2.60667 4.46249ZM12.4808 7.45874C12.2046 7.45874 11.9283 7.51541 11.6804 7.64291C11.4396 7.76333 11.2342 7.94041 11.0783 8.16708C10.9225 8.39374 10.8446 8.69833 10.8446 9.06666C10.8375 9.31458 10.88 9.56249 10.965 9.79624C11.0358 9.98749 11.1421 10.1575 11.2837 10.2992C11.4183 10.4267 11.5813 10.5258 11.7654 10.5825C11.9567 10.6462 12.155 10.6746 12.3533 10.6746C12.4596 10.6746 12.5588 10.6675 12.6508 10.6604C12.7429 10.6675 12.8208 10.6533 12.9058 10.625V7.50833C12.7666 7.47534 12.6239 7.4587 12.4808 7.45874Z" fill="#CCCCCC"/>
</g>
<defs>
<clipPath id="clip0_2058_223">
<rect width="17" height="17" fill="white"/>
</clipPath>
</defs>
</svg>
