<svg width="14" height="14" viewBox="0 0 14 14" fill="none" xmlns="http://www.w3.org/2000/svg">
<path fill-rule="evenodd" clip-rule="evenodd" d="M14 7C14 8.85652 13.2625 10.637 11.9497 11.9497C10.637 13.2625 8.85652 14 7 14C5.14348 14 3.36301 13.2625 2.05025 11.9497C0.737498 10.637 0 8.85652 0 7C0 5.14348 0.737498 3.36301 2.05025 2.05025C3.36301 0.737498 5.14348 0 7 0C8.85652 0 10.637 0.737498 11.9497 2.05025C13.2625 3.36301 14 5.14348 14 7ZM8.04116 3.11256C8.10777 3.1303 8.17023 3.16101 8.22496 3.20292C8.27969 3.24484 8.32561 3.29714 8.3601 3.35683C8.39459 3.41652 8.41696 3.48243 8.42594 3.55077C8.43492 3.61912 8.43033 3.68857 8.41243 3.75515L6.60143 10.517C6.56534 10.6516 6.47727 10.7663 6.35661 10.8359C6.23594 10.9055 6.09256 10.9244 5.958 10.8883C5.82344 10.8522 5.70873 10.7641 5.63911 10.6435C5.56948 10.5228 5.55064 10.3794 5.58673 10.2449L7.39857 3.48299C7.43478 3.34873 7.52278 3.23432 7.64325 3.16488C7.76373 3.09543 7.90683 3.07661 8.04116 3.11256ZM9.07854 4.52877C9.12729 4.48001 9.18517 4.44132 9.24887 4.41493C9.31258 4.38854 9.38086 4.37495 9.44981 4.37495C9.51877 4.37495 9.58704 4.38854 9.65075 4.41493C9.71445 4.44132 9.77233 4.48001 9.82108 4.52877L9.96724 4.67493C10.4116 5.12012 10.782 5.48971 11.0374 5.82402C11.3062 6.17682 11.4952 6.54893 11.4952 7C11.4952 7.45107 11.3062 7.82318 11.0374 8.17598C10.7829 8.50945 10.4116 8.88072 9.96724 9.32507L9.82108 9.47123C9.72262 9.5697 9.58907 9.62502 9.44981 9.62502C9.31056 9.62502 9.17701 9.5697 9.07854 9.47123C8.98007 9.37276 8.92475 9.23921 8.92475 9.09996C8.92475 8.9607 8.98007 8.82715 9.07854 8.72869L9.19866 8.60857C9.67577 8.13146 9.9958 7.81058 10.2024 7.53927C10.4007 7.27971 10.4452 7.12936 10.4452 7C10.4452 6.87064 10.3998 6.72029 10.2024 6.46073C9.9958 6.19026 9.67577 5.86854 9.19866 5.39143L9.07854 5.27131C9.02977 5.22256 8.99109 5.16468 8.9647 5.10098C8.93831 5.03728 8.92472 4.969 8.92472 4.90004C8.92472 4.83109 8.93831 4.76281 8.9647 4.69911C8.99109 4.6354 9.02977 4.57752 9.07854 4.52877ZM4.17892 4.52877C4.27738 4.4303 4.41093 4.37498 4.55019 4.37498C4.68944 4.37498 4.82299 4.4303 4.92146 4.52877C5.01993 4.62724 5.07525 4.76079 5.07525 4.90004C5.07525 5.0393 5.01993 5.17285 4.92146 5.27131L4.80134 5.39143C4.32423 5.86854 4.0042 6.18942 3.79756 6.46073C3.59933 6.72029 3.55481 6.87064 3.55481 7C3.55481 7.12936 3.59933 7.27971 3.79756 7.53927C4.0042 7.80974 4.32423 8.13146 4.80134 8.60857L4.92146 8.72869C5.01993 8.82715 5.07525 8.9607 5.07525 9.09996C5.07525 9.23921 5.01993 9.37276 4.92146 9.47123C4.82299 9.5697 4.68944 9.62502 4.55019 9.62502C4.41093 9.62502 4.27738 9.5697 4.17892 9.47123L4.03276 9.32507C3.58757 8.87988 3.21798 8.51029 2.96262 8.17598C2.69383 7.82318 2.50483 7.45107 2.50483 7C2.50483 6.54893 2.69383 6.17682 2.96262 5.82402C3.21714 5.49055 3.58841 5.11928 4.03276 4.67493L4.17892 4.52877Z" fill="#CCCCCC"/>
</svg>
