<svg width="14" height="14" viewBox="0 0 14 14" fill="none" xmlns="http://www.w3.org/2000/svg">
<path d="M0 3.15059C0 1.66559 5.00639e-08 0.923086 0.461963 0.461963C0.922246 5.00639e-08 1.66475 0 3.14975 0C4.63475 0 5.37725 5.00639e-08 5.83753 0.461963C6.2995 0.923086 6.2995 1.66559 6.2995 3.14975C6.2995 4.63475 6.2995 5.37725 5.83753 5.83837C5.37725 6.30034 4.63475 6.30034 3.14975 6.30034C1.66475 6.30034 0.922246 6.30034 0.461963 5.83837C5.00639e-08 5.37725 0 4.63475 0 3.15059ZM7.7005 10.8494C7.7005 9.36525 7.7005 8.62275 8.16247 8.16163C8.62275 7.69966 9.36525 7.69966 10.8503 7.69966C12.3353 7.69966 13.0778 7.69966 13.538 8.16163C14 8.62275 14 9.36525 14 10.8494C14 12.3344 14 13.0769 13.538 13.538C13.0778 14 12.3353 14 10.8503 14C9.36525 14 8.62275 14 8.16247 13.538C7.7005 13.0769 7.7005 12.3336 7.7005 10.8494ZM0 10.8494C0 9.36525 5.00639e-08 8.62275 0.461963 8.16163C0.922246 7.69966 1.66475 7.69966 3.14975 7.69966C4.63475 7.69966 5.37725 7.69966 5.83753 8.16163C6.2995 8.62275 6.2995 9.36525 6.2995 10.8494C6.2995 12.3344 6.2995 13.0769 5.83753 13.538C5.37725 14 4.63475 14 3.14975 14C1.66475 14 0.922246 14 0.461963 13.538C5.00639e-08 13.0769 0 12.3336 0 10.8494ZM7.7005 3.15059C7.7005 1.66559 7.7005 0.923086 8.16247 0.461963C8.62275 5.00639e-08 9.36525 0 10.8503 0C12.3353 0 13.0778 5.00639e-08 13.538 0.461963C14 0.923086 14 1.66559 14 3.14975C14 4.63475 14 5.37725 13.538 5.83837C13.0778 6.30034 12.3353 6.30034 10.8503 6.30034C9.36525 6.30034 8.62275 6.30034 8.16247 5.83837C7.7005 5.37725 7.7005 4.63475 7.7005 3.15059Z" fill="#916CE7"/>
</svg>
